<svg width="61" height="61" viewBox="0 0 61 61" fill="none" xmlns="http://www.w3.org/2000/svg">
<path d="M51.3903 8.7593C45.7526 3.10814 38.2446 0 30.2657 0C13.7966 0 0.395296 13.4013 0.395296 29.8704C0.395296 35.1314 1.76772 40.2713 4.37802 44.8056L0.139648 60.2791L15.9764 56.1214C20.3358 58.503 25.247 59.7543 30.2523 59.7543H30.2657C46.7214 59.7543 60.4187 46.353 60.4187 29.8839C60.4187 21.905 57.028 14.4105 51.3903 8.7593ZM30.2657 54.7221C25.7986 54.7221 21.4257 53.5246 17.6179 51.2641L16.7164 50.7259L7.3247 53.1882L9.82736 44.0252L9.23533 43.0834C6.74613 39.1276 5.44098 34.5663 5.44098 29.8704C5.44098 16.1865 16.5818 5.04568 30.2792 5.04568C36.9126 5.04568 43.1423 7.62907 47.8247 12.3249C52.5071 17.0208 55.3865 23.2505 55.373 29.8839C55.373 43.5812 43.9496 54.7221 30.2657 54.7221ZM43.8823 36.1271C43.1423 35.7503 39.4691 33.9473 38.7828 33.7052C38.0966 33.4495 37.5988 33.3284 37.1009 34.0819C36.6031 34.8354 35.1769 36.5038 34.7328 37.0151C34.3023 37.513 33.8583 37.5802 33.1182 37.2035C28.7318 35.0103 25.8524 33.288 22.9596 28.3231C22.1926 27.0045 23.7265 27.0987 25.1528 24.2462C25.395 23.7483 25.2739 23.3178 25.0855 22.941C24.8971 22.5643 23.4036 18.891 22.7847 17.3975C22.1792 15.9444 21.5602 16.1462 21.1028 16.1193C20.6722 16.0924 20.1744 16.0924 19.6765 16.0924C19.1787 16.0924 18.3714 16.2807 17.6852 17.0208C16.9989 17.7743 15.0749 19.5772 15.0749 23.2505C15.0749 26.9238 17.7524 30.4759 18.1157 30.9738C18.4925 31.4716 23.3767 39.0065 30.8712 42.2492C35.6074 44.2944 37.4642 44.4693 39.8323 44.1194C41.272 43.9042 44.2456 42.3164 44.8646 40.5673C45.4835 38.8181 45.4835 37.3246 45.2951 37.0151C45.1202 36.6787 44.6224 36.4904 43.8823 36.1271Z" fill="#F1EDE5"/>
</svg>