<svg width="63" height="45" viewBox="0 0 63 45" fill="none" xmlns="http://www.w3.org/2000/svg">
<path fill-rule="evenodd" clip-rule="evenodd" d="M60.524 0.8999C60.524 1.27285 60.8264 1.57496 61.1991 1.57496C61.5717 1.57496 61.8741 1.27285 61.8741 0.8999C61.8741 0.527228 61.5717 0.225115 61.1991 0.225115C60.8264 0.225115 60.524 0.527228 60.524 0.8999ZM60.2992 0.8999C60.2992 0.402911 60.7021 0 61.1991 0C61.6961 0 62.099 0.402911 62.099 0.8999C62.099 1.39689 61.6961 1.80008 61.1991 1.80008C60.7021 1.80008 60.2992 1.39689 60.2992 0.8999ZM61.0675 0.841661H61.259C61.3374 0.841661 61.3763 0.806662 61.3763 0.736664C61.3763 0.666665 61.3343 0.631666 61.2497 0.631666H61.0675V0.841661ZM61.4228 0.90046C61.4805 0.925099 61.5113 0.976618 61.5155 1.05502L61.5247 1.16589C61.5267 1.21125 61.539 1.24933 61.5617 1.28013H61.4009C61.3825 1.25549 61.3724 1.21741 61.3701 1.16589L61.364 1.08582C61.3598 1.0427 61.3505 1.01302 61.3363 0.997618C61.3217 0.982218 61.2959 0.974378 61.259 0.974378H61.0675V1.28013H60.9132V0.492789H61.2559C61.3424 0.492789 61.4107 0.512389 61.4614 0.551588C61.5118 0.590507 61.537 0.646226 61.537 0.718184C61.537 0.806662 61.4989 0.867421 61.4228 0.90046ZM53.9997 3.60007V0.000193762H59.3997V44.9999H53.9997V10.8001H45.8998V5.40015H52.1996C53.1939 5.40015 53.9997 4.59433 53.9997 3.60007ZM0 5.40015H6.29986C7.29384 5.40015 8.09994 4.59433 8.09994 3.60007V0.000194819H13.4999V44.9999H8.09994V10.8001H0V5.40015ZM40.3901 23.0459C42.8331 20.603 44.3442 17.2282 44.3442 13.5001C44.3442 6.04862 38.3829 0.0475104 30.9314 0.000471466C23.4357 -0.0468475 17.3444 6.01558 17.3444 13.5001H22.7444C22.7444 8.98827 26.4336 5.33799 30.9599 5.40099C35.3872 5.46287 38.9725 9.12547 38.944 13.5533C38.93 15.7689 38.0261 17.7734 36.5719 19.2276L17.254 38.5455C16.5789 39.2209 16.1995 40.1365 16.1995 41.0909V44.9999H44.9994V39.6H23.8363L40.3901 23.0459Z" fill="#2B1A18"/>
</svg>
