<svg width="198" height="77" viewBox="0 0 198 77" fill="none" xmlns="http://www.w3.org/2000/svg">
<path d="M106.818 76V52.7273H109.636V73.5H120.455V76H106.818ZM129.591 76.4091C128.485 76.4091 127.481 76.2008 126.58 75.7841C125.678 75.3598 124.962 74.75 124.432 73.9545C123.902 73.1515 123.636 72.1818 123.636 71.0455C123.636 70.0455 123.833 69.2348 124.227 68.6136C124.621 67.9848 125.148 67.4924 125.807 67.1364C126.466 66.7803 127.193 66.5152 127.989 66.3409C128.792 66.1591 129.598 66.0152 130.409 65.9091C131.47 65.7727 132.33 65.6705 132.989 65.6023C133.655 65.5265 134.14 65.4015 134.443 65.2273C134.754 65.053 134.909 64.75 134.909 64.3182V64.2273C134.909 63.1061 134.602 62.2348 133.989 61.6136C133.383 60.9924 132.462 60.6818 131.227 60.6818C129.947 60.6818 128.943 60.9621 128.216 61.5227C127.489 62.0833 126.977 62.6818 126.682 63.3182L124.136 62.4091C124.591 61.3485 125.197 60.5227 125.955 59.9318C126.72 59.3333 127.553 58.9167 128.455 58.6818C129.364 58.4394 130.258 58.3182 131.136 58.3182C131.697 58.3182 132.341 58.3864 133.068 58.5227C133.803 58.6515 134.511 58.9205 135.193 59.3295C135.883 59.7386 136.455 60.3561 136.909 61.1818C137.364 62.0076 137.591 63.1136 137.591 64.5V76H134.909V73.6364H134.773C134.591 74.0152 134.288 74.4205 133.864 74.8523C133.439 75.2841 132.875 75.6515 132.17 75.9545C131.466 76.2576 130.606 76.4091 129.591 76.4091ZM130 74C131.061 74 131.955 73.7917 132.682 73.375C133.417 72.9583 133.97 72.4205 134.341 71.7614C134.72 71.1023 134.909 70.4091 134.909 69.6818V67.2273C134.795 67.3636 134.545 67.4886 134.159 67.6023C133.78 67.7083 133.341 67.803 132.841 67.8864C132.348 67.9621 131.867 68.0303 131.398 68.0909C130.936 68.1439 130.561 68.1894 130.273 68.2273C129.576 68.3182 128.924 68.4659 128.318 68.6705C127.72 68.8674 127.235 69.1667 126.864 69.5682C126.5 69.9621 126.318 70.5 126.318 71.1818C126.318 72.1136 126.663 72.8182 127.352 73.2955C128.049 73.7652 128.932 74 130 74ZM150.077 58.5455V60.8182H141.031V58.5455H150.077ZM143.668 54.3636H146.349V71C146.349 71.7576 146.459 72.3258 146.679 72.7045C146.906 73.0758 147.194 73.3258 147.543 73.4545C147.899 73.5758 148.274 73.6364 148.668 73.6364C148.963 73.6364 149.205 73.6212 149.395 73.5909C149.584 73.553 149.736 73.5227 149.849 73.5L150.395 75.9091C150.213 75.9773 149.959 76.0455 149.634 76.1136C149.308 76.1894 148.895 76.2273 148.395 76.2273C147.637 76.2273 146.895 76.0644 146.168 75.7386C145.448 75.4129 144.849 74.9167 144.372 74.25C143.902 73.5833 143.668 72.7424 143.668 71.7273V54.3636ZM159.247 76.4091C158.141 76.4091 157.137 76.2008 156.236 75.7841C155.334 75.3598 154.618 74.75 154.088 73.9545C153.558 73.1515 153.293 72.1818 153.293 71.0455C153.293 70.0455 153.49 69.2348 153.884 68.6136C154.277 67.9848 154.804 67.4924 155.463 67.1364C156.122 66.7803 156.849 66.5152 157.645 66.3409C158.448 66.1591 159.255 66.0152 160.065 65.9091C161.126 65.7727 161.986 65.6705 162.645 65.6023C163.312 65.5265 163.796 65.4015 164.099 65.2273C164.41 65.053 164.565 64.75 164.565 64.3182V64.2273C164.565 63.1061 164.259 62.2348 163.645 61.6136C163.039 60.9924 162.118 60.6818 160.884 60.6818C159.603 60.6818 158.599 60.9621 157.872 61.5227C157.145 62.0833 156.634 62.6818 156.338 63.3182L153.793 62.4091C154.247 61.3485 154.853 60.5227 155.611 59.9318C156.376 59.3333 157.209 58.9167 158.111 58.6818C159.02 58.4394 159.914 58.3182 160.793 58.3182C161.353 58.3182 161.997 58.3864 162.724 58.5227C163.459 58.6515 164.168 58.9205 164.849 59.3295C165.539 59.7386 166.111 60.3561 166.565 61.1818C167.02 62.0076 167.247 63.1136 167.247 64.5V76H164.565V73.6364H164.429C164.247 74.0152 163.944 74.4205 163.52 74.8523C163.096 75.2841 162.531 75.6515 161.827 75.9545C161.122 76.2576 160.262 76.4091 159.247 76.4091ZM159.656 74C160.717 74 161.611 73.7917 162.338 73.375C163.073 72.9583 163.626 72.4205 163.997 71.7614C164.376 71.1023 164.565 70.4091 164.565 69.6818V67.2273C164.452 67.3636 164.202 67.4886 163.815 67.6023C163.437 67.7083 162.997 67.803 162.497 67.8864C162.005 67.9621 161.524 68.0303 161.054 68.0909C160.592 68.1439 160.217 68.1894 159.929 68.2273C159.232 68.3182 158.58 68.4659 157.974 68.6705C157.376 68.8674 156.891 69.1667 156.52 69.5682C156.156 69.9621 155.974 70.5 155.974 71.1818C155.974 72.1136 156.319 72.8182 157.009 73.2955C157.705 73.7652 158.588 74 159.656 74ZM172.142 76V58.5455H174.733V61.2727H174.96C175.324 60.3409 175.911 59.6174 176.722 59.1023C177.532 58.5795 178.506 58.3182 179.642 58.3182C180.794 58.3182 181.752 58.5795 182.517 59.1023C183.29 59.6174 183.892 60.3409 184.324 61.2727H184.506C184.953 60.3712 185.623 59.6553 186.517 59.125C187.411 58.5871 188.483 58.3182 189.733 58.3182C191.294 58.3182 192.57 58.8068 193.562 59.7841C194.555 60.7538 195.051 62.2652 195.051 64.3182V76H192.369V64.3182C192.369 63.0303 192.017 62.1098 191.312 61.5568C190.608 61.0038 189.778 60.7273 188.824 60.7273C187.597 60.7273 186.646 61.0985 185.972 61.8409C185.297 62.5758 184.96 63.5076 184.96 64.6364V76H182.233V64.0455C182.233 63.053 181.911 62.2538 181.267 61.6477C180.623 61.0341 179.794 60.7273 178.778 60.7273C178.081 60.7273 177.43 60.9129 176.824 61.2841C176.225 61.6553 175.741 62.1705 175.369 62.8295C175.006 63.4811 174.824 64.2348 174.824 65.0909V76H172.142Z" fill="#1C3D6D"/>
<path d="M10.656 9.13464H0V18.268H13.7004V76.1157H22.8346V0.000496337H13.7004V6.0902C13.7004 7.77136 12.3371 9.13464 10.656 9.13464Z" fill="#1C3D6D"/>
<path d="M91.3381 0.000329741V6.08923C91.3381 7.7712 89.9748 9.13448 88.2937 9.13448H77.6377V18.2678H91.3381V76.1147H100.471V0.000329741H91.3381Z" fill="#1C3D6D"/>
<path d="M68.3183 38.981C72.4508 34.8485 75.0068 29.1403 75.0068 22.8349C75.0068 10.2306 64.923 0.0800082 52.3195 0.000335881C39.6403 -0.0793364 29.3376 10.1742 29.3376 22.8349H38.471C38.471 15.2033 44.7112 9.02825 52.3678 9.13529C59.8562 9.23991 65.9201 15.435 65.8726 22.9242C65.8485 26.672 64.3194 30.0625 61.86 32.5227L29.1847 65.198C28.0428 66.34 27.4014 67.8884 27.4014 69.5036V76.1147H76.1149V66.9814H40.3179L68.3183 38.981Z" fill="#1C3D6D"/>
</svg>
