<svg width="92" height="24" viewBox="0 0 92 24" fill="none" xmlns="http://www.w3.org/2000/svg">
<path d="M0 23.5854V0H2.93856V21.0518H14.2186V23.5854H0Z" fill="#2B1A18"/>
<path fill-rule="evenodd" clip-rule="evenodd" d="M23.745 24C22.5918 24 21.545 23.7889 20.605 23.3666C19.665 22.9366 18.9186 22.3187 18.3656 21.5125C17.8127 20.6986 17.5363 19.7158 17.5363 18.5643C17.5363 17.5509 17.7415 16.7293 18.1524 16.0997C18.5632 15.4626 19.1121 14.9635 19.7994 14.6027C20.4866 14.2418 21.2449 13.9731 22.0743 13.7965C22.5182 13.6989 22.9631 13.6119 23.409 13.5358C23.5788 13.5069 23.7488 13.4795 23.9189 13.4537C24.145 13.4193 24.3713 13.3879 24.5982 13.359L24.8224 13.3312L25.305 13.272C25.5872 13.2376 25.8532 13.206 26.103 13.1771C26.5499 13.1255 26.9449 13.0825 27.2877 13.048C27.6297 13.0102 27.9257 12.9604 28.1759 12.8984C28.4344 12.8345 28.6439 12.7576 28.8044 12.6679C29.1284 12.4913 29.2902 12.1842 29.2902 11.7467V11.6544C29.2902 10.5182 28.9703 9.63536 28.3304 9.00581C27.6985 8.37627 26.7388 8.06141 25.4511 8.06141C24.1163 8.06141 23.0695 8.34557 22.3113 8.9137C21.553 9.48183 21.0197 10.0883 20.7118 10.7333L18.0577 9.81195C18.5315 8.7371 19.1634 7.90025 19.9533 7.30142C20.7511 6.69477 21.6201 6.27253 22.5601 6.03452C23.5079 5.78888 24.4401 5.66606 25.3564 5.66606C25.5216 5.66606 25.6936 5.67151 25.8726 5.68259C26.3272 5.71057 26.8266 5.77416 27.3707 5.87336C28.1369 6.00382 28.8754 6.27634 29.5864 6.69095C30.3053 7.10556 30.9016 7.73129 31.3756 8.56813C31.8496 9.40498 32.0865 10.526 32.0865 11.931V23.5854H29.2902V21.19H29.148C28.9584 21.5739 28.6424 21.9846 28.2001 22.4222C27.9999 22.6203 27.7697 22.8051 27.5095 22.9764C27.1951 23.1837 26.8368 23.3712 26.4348 23.5394C26.1043 23.6775 25.7412 23.7845 25.3454 23.8605C24.861 23.9535 24.3275 24 23.745 24ZM24.1715 21.5585C25.2774 21.5585 26.2096 21.3474 26.9679 20.9251C27.7341 20.5029 28.3107 19.9578 28.6978 19.2898C29.0928 18.6219 29.2902 17.9193 29.2902 17.1824V14.6948C29.1718 14.833 28.911 14.9597 28.5082 15.0749C28.4216 15.0985 28.3319 15.1215 28.2393 15.1441C28.1595 15.1633 28.0775 15.1822 27.9932 15.2008C27.7289 15.2587 27.4424 15.3129 27.1337 15.3628C26.8517 15.405 26.5732 15.4448 26.2983 15.4824C26.0728 15.5133 25.8497 15.5425 25.629 15.5701C25.1471 15.6237 24.7561 15.6699 24.456 15.7082C23.7292 15.8003 23.05 15.95 22.4179 16.1573C21.7938 16.357 21.2883 16.6602 20.9013 17.0672C20.522 17.4664 20.3325 18.0114 20.3325 18.7026C20.3325 19.6468 20.692 20.3608 21.4108 20.8445C22.1375 21.3205 23.0578 21.5585 24.1715 21.5585Z" fill="#2B1A18"/>
<path d="M45.1055 8.19967V5.89644H41.2191V1.65843H38.4227V5.89644H35.6737V8.19967H38.4227V19.2553C38.4227 20.2842 38.6675 21.1363 39.1573 21.812C39.655 22.4875 40.2791 22.9904 41.0295 23.3205C41.7878 23.6506 42.5619 23.8158 43.3518 23.8158C43.8732 23.8158 44.3036 23.7774 44.6434 23.7006C44.983 23.6315 45.2475 23.5623 45.4373 23.4933L44.8684 21.0518L44.3946 21.1439C44.334 21.1533 44.2682 21.1613 44.1973 21.1679C44.1347 21.1737 44.068 21.1782 43.9973 21.1819C43.8868 21.1873 43.7664 21.19 43.6361 21.19C43.2255 21.19 42.8344 21.1286 42.4631 21.0058C42.0998 20.8752 41.7995 20.6219 41.5626 20.2456C41.3335 19.8617 41.2191 19.286 41.2191 18.5182V8.19967H45.1055Z" fill="#2B1A18"/>
<path fill-rule="evenodd" clip-rule="evenodd" d="M54.6673 24C53.5141 24 52.4674 23.7889 51.5274 23.3666C50.5874 22.9366 49.8409 22.3187 49.2881 21.5125C48.735 20.6986 48.4586 19.7158 48.4586 18.5643C48.4586 17.5509 48.664 16.7293 49.0748 16.0997C49.4855 15.4626 50.0346 14.9635 50.7218 14.6027C51.4089 14.2418 52.1673 13.9731 52.9966 13.7965C53.1627 13.76 53.3288 13.7249 53.4951 13.6915C53.809 13.6283 54.123 13.5705 54.4379 13.518C54.6069 13.4898 54.7762 13.4633 54.9456 13.4382C55.137 13.4097 55.3287 13.3834 55.5205 13.359C56.6264 13.2207 57.5229 13.117 58.2102 13.048C58.9053 12.9713 59.411 12.8445 59.7269 12.6679C60.0507 12.4913 60.2126 12.1842 60.2126 11.7467V11.6544C60.2126 10.5182 59.8928 9.63536 59.2529 9.00581C58.621 8.37627 57.6612 8.06141 56.3736 8.06141C55.0386 8.06141 53.992 8.34557 53.2337 8.9137C52.4755 9.48183 51.9422 10.0883 51.6341 10.7333L48.9799 9.81195C49.454 8.7371 50.0858 7.90025 50.8758 7.30142C51.6736 6.69477 52.5426 6.27253 53.4826 6.03452C54.4304 5.78888 55.3626 5.66606 56.2789 5.66606C56.8635 5.66606 57.5349 5.7351 58.2931 5.87336C59.0594 6.00382 59.7979 6.27634 60.5088 6.69095C61.2278 7.10556 61.8241 7.73129 62.2981 8.56813C62.7719 9.40498 63.009 10.526 63.009 11.931V23.5854H60.2126V21.19H60.0704C59.8809 21.5739 59.5649 21.9846 59.1226 22.4222C58.6803 22.8599 58.0916 23.2322 57.357 23.5394C56.6224 23.8465 55.7259 24 54.6673 24ZM55.094 21.5585C56.1999 21.5585 57.1319 21.3474 57.8903 20.9251C58.6564 20.5029 59.2331 19.9578 59.6203 19.2898C60.0151 18.6219 60.2126 17.9193 60.2126 17.1824V14.6948C60.0941 14.833 59.8335 14.9597 59.4307 15.0749C59.2961 15.1116 59.1543 15.1468 59.005 15.1808C58.7162 15.2464 58.3999 15.307 58.0562 15.3628C57.5427 15.4395 57.0411 15.5087 56.5514 15.5701C56.0696 15.6237 55.6785 15.6699 55.3782 15.7082C54.6517 15.8003 53.9722 15.95 53.3403 16.1573C52.7163 16.357 52.2108 16.6602 51.8236 17.0672C51.4445 17.4664 51.2549 18.0114 51.2549 18.7026C51.2549 19.6468 51.6143 20.3608 52.3332 20.8445C53.0598 21.3205 53.9803 21.5585 55.094 21.5585Z" fill="#2B1A18"/>
<path d="M68.1127 5.89644V23.5854H70.9091V12.5298C70.9091 11.6622 71.0987 10.8983 71.478 10.238C71.8649 9.57013 72.3704 9.04797 72.9945 8.67169C73.6264 8.2956 74.3058 8.10756 75.0326 8.10756C76.0909 8.10756 76.956 8.41842 77.6274 9.04033C78.2988 9.65443 78.6345 10.4646 78.6345 11.4702V23.5854H81.4782V12.069C81.4782 10.9251 81.8298 9.98074 82.5329 9.23601C83.2358 8.48365 84.2272 8.10756 85.5068 8.10756C86.5022 8.10756 87.3671 8.38772 88.1017 8.94822C88.8365 9.50872 89.2037 10.4415 89.2037 11.7467V23.5854H92V11.7467C92 9.66606 91.4826 8.13427 90.4479 7.15171C89.413 6.16116 88.0819 5.66606 86.4549 5.66606C85.1514 5.66606 84.0337 5.93859 83.1016 6.48365C82.1694 7.02108 81.4704 7.74673 81.0044 8.66025H80.8146C80.3645 7.71584 79.7365 6.98274 78.9307 6.46057C78.1329 5.93096 77.1337 5.66606 75.9331 5.66606C74.7481 5.66606 73.733 5.93096 72.8879 6.46057C72.0428 6.98274 71.4304 7.71584 71.0513 8.66025H70.8144V5.89644H68.1127Z" fill="#2B1A18"/>
</svg>
