<svg width="210" height="210" viewBox="0 0 210 210" fill="none" xmlns="http://www.w3.org/2000/svg">
<path d="M117.474 106.128C121.797 110.105 156.853 142.787 159 145C159 118.507 159 92.4031 159 66C158.441 66.5681 120.385 101.613 117.709 104.154C117.15 104.693 116.562 105.261 117.474 106.128Z" fill="white"/>
<path d="M111.829 111.187C110.476 112.066 109.183 112.976 107.83 113.855C106.477 114.735 105.094 114.704 103.771 113.764C102.629 112.945 101.516 112.096 100.434 111.187C98.5393 109.61 97.6974 109.579 95.8933 111.247C85.129 121.194 60.5335 144.484 59 146C90 146 120.94 146 152 146C151.098 145.09 127.104 122.801 115.949 111.611C114.475 110.125 113.543 110.064 111.829 111.187Z" fill="white"/>
<path d="M152 65C120.697 65 89.5153 65 58 65C58.546 65.5741 105.167 107 105.167 107L152 65Z" fill="white"/>
<path d="M93.4379 104.782C81.1949 93.6799 53.707 67.7356 52 66C52 92.453 52 118.577 52 145C52.5297 144.461 89.9063 110.019 93.2025 106.936C93.8499 106.338 94.4974 105.739 93.4379 104.782Z" fill="white"/>
<path d="M207.802 0C139.258 0 70.7128 0 2.16801 0C0 0 0 0 0 2.22741C0 70.7425 0 139.228 0 207.743C0 210 0 210 2.25711 210C36.4998 210 70.7722 210 105.015 210C139.258 210 173.53 210 207.773 210C210 210 210 210 210 207.862C210 139.317 210 70.7425 210 2.19771C210 0 210 0 207.802 0ZM104.985 106.411C104.985 106.411 59.3381 65.6937 58.8036 65.1294C89.6606 65.1294 120.191 65.1294 150.84 65.1294L104.985 106.411ZM115.499 111.489C126.517 122.448 150.216 144.277 151.107 145.168C120.429 145.168 89.8685 145.168 59.249 145.168C60.734 143.683 85.0573 120.874 95.6597 111.162C97.4417 109.529 98.2732 109.559 100.144 111.103C101.213 111.994 102.312 112.826 103.441 113.628C104.748 114.578 106.114 114.608 107.45 113.717C108.787 112.855 110.064 111.964 111.4 111.103C113.123 109.975 114.043 110.034 115.499 111.489ZM92.779 104.688C93.8481 105.639 93.1947 106.233 92.5414 106.856C89.2448 109.915 51.4977 144.098 50.9631 144.633C50.9631 118.409 50.9631 92.482 50.9631 66.2283C52.6856 67.9211 80.4243 93.6699 92.779 104.688ZM159.69 144.722C157.522 142.554 122.092 110.064 117.756 106.114C116.805 105.252 117.429 104.718 117.993 104.183C120.696 101.659 159.126 66.8519 159.69 66.2877C159.69 92.482 159.69 118.439 159.69 144.722Z" fill="#1E3D6D"/>
</svg>
