<svg width="647" height="374" viewBox="0 0 647 374" fill="none" xmlns="http://www.w3.org/2000/svg">
<path d="M93.1702 176.265C94.0313 192.97 93.4285 209.589 93.6007 226.294C93.6007 227.242 93.6007 228.275 93.2563 229.222C92.4813 227.844 92.0508 226.294 91.0175 225.003C88.3481 221.645 84.8176 220.095 80.5122 220.008C68.543 219.664 58.8127 214.67 51.4935 205.198C46.5853 198.826 44.1742 191.506 44.0881 183.498C43.9159 167.654 44.002 151.896 44.002 136.052C44.002 133.641 44.0881 133.469 46.6714 133.641C60.7932 134.502 72.5041 140.358 81.7177 151.035C87.5731 157.838 91.2758 165.674 92.7396 174.543C92.8258 175.06 92.998 175.662 93.1702 176.265Z" fill="#C886A9"/>
<path d="M93.3421 252.988C93.7727 260.652 93.5143 268.229 93.6004 275.893C93.6004 277.012 93.6866 278.218 93.3421 279.337C92.6533 277.529 91.9644 275.635 90.6727 274.085C88.0895 270.985 84.7312 269.607 80.7702 269.435C77.7564 269.349 75.1731 268.402 72.9343 266.421C70.2649 264.01 68.8011 260.996 68.715 257.466C68.6289 249.802 68.6289 242.052 68.715 234.389C68.715 232.494 68.9733 232.322 71.0399 232.494C80.598 233.269 89.1228 240.072 92.2227 249.371C92.6532 250.577 92.9977 251.783 93.3421 252.988Z" fill="#C886A9"/>
<path d="M75.9475 29.8798C72.5032 28.7603 69.1449 27.727 65.7006 26.6076C64.5812 24.7132 63.634 22.7327 63.5479 20.3217C63.5479 15.4996 66.7339 11.4525 71.3838 10.5053C76.1198 9.55805 80.7696 12.0552 82.4918 16.4468C84.3001 21.0105 82.664 26.091 78.5308 28.5881C77.7558 29.1048 76.8086 29.5353 75.9475 29.8798Z" fill="#C886A9"/>
<path d="M192.453 40.5572C193.659 41.6766 194.778 42.7099 195.898 43.8293C197.189 45.1209 197.276 45.207 195.898 46.5848C191.765 50.718 187.631 54.8512 183.412 59.0706C181.001 61.4816 178.504 63.7205 176.351 66.3037C176.179 66.5621 175.921 66.7343 175.748 66.9926L175.834 66.9065C174.801 67.337 174.198 68.1981 173.423 68.9731C152.154 90.1559 130.972 111.425 109.703 132.608C105.397 136.913 103.245 141.907 103.245 147.935C103.331 157.665 103.331 167.396 103.331 177.126C103.331 184.445 103.245 191.764 103.245 199.084C103.245 209.245 103.331 219.405 103.331 229.566C103.331 237.316 103.331 245.152 103.331 252.902C103.331 261.599 103.331 270.296 103.331 278.993C103.331 308.011 103.245 337.116 103.245 366.135C103.245 366.91 103.245 367.771 103.245 368.546C103.158 370.44 103.072 370.613 101.264 370.613C99.1975 370.699 97.1309 370.613 95.0643 370.613C93.9448 370.613 93.4282 370.096 93.4282 368.977C93.4282 368.116 93.4282 367.168 93.4282 366.307C93.4282 339.958 93.4282 313.522 93.4282 287.173C93.4282 284.504 93.3421 281.834 93.256 279.165C93.6004 278.046 93.5143 276.84 93.5143 275.721C93.4282 268.057 93.6865 260.479 93.256 252.816C93.5143 244.894 93.6004 236.972 93.1699 229.05C93.5143 228.102 93.5143 227.155 93.5143 226.122C93.3421 209.417 93.9448 192.798 93.0838 176.093C93.4282 175.059 93.4282 174.026 93.4282 172.907C93.4282 164.898 93.3421 156.804 93.4282 148.796C93.5143 142.166 91.1032 136.741 86.3673 132.005C58.2096 104.019 30.052 75.6896 1.72218 47.4459C1.63607 47.3598 1.46385 47.1875 1.37774 47.1014C-0.430545 45.207 -0.516654 45.207 1.46385 43.3988C11.7969 33.8407 23.8522 27.8991 37.8018 25.6603C46.3266 24.2826 54.8514 24.5409 63.3762 26.2631C64.1512 26.4353 64.9261 26.5214 65.7872 26.6936C69.2316 27.813 72.5898 28.8463 76.0342 29.9658C79.4785 31.774 83.009 33.4101 86.3673 35.5628C90.3283 38.06 93.9448 40.9016 97.3031 44.0876C98.1642 44.9487 98.8531 45.0348 99.7141 44.0876C105.742 38.2322 112.717 33.8407 120.294 30.3963C120.552 30.3102 120.725 30.0519 120.983 29.9658C124.427 28.8463 127.786 27.813 131.23 26.6936C135.191 26.0047 139.152 25.2298 143.199 24.9714C159.904 23.9381 175.059 28.2436 188.751 37.8017C189.87 38.7489 191.162 39.61 192.453 40.5572Z" fill="#8DDCC2"/>
<path d="M103.502 229.653C103.502 219.492 103.416 209.331 103.416 199.17C103.416 191.851 103.502 184.531 103.502 177.212C104.277 174.457 104.622 171.615 105.397 168.86C111.166 149.399 128.646 135.105 148.968 133.641C149.14 133.641 149.312 133.641 149.484 133.641C152.756 133.469 152.756 133.469 152.756 136.741C152.756 152.154 152.843 167.482 152.756 182.895C152.67 203.389 136.912 219.578 116.418 220.008C109.702 220.181 105.569 223.539 103.502 229.653Z" fill="#C886A9"/>
<path d="M103.416 279.079C103.416 270.382 103.416 261.685 103.416 252.988C103.76 251.783 104.105 250.577 104.535 249.458C108.066 239.641 115.127 234.044 125.374 232.58C127.871 232.236 127.957 232.408 128.043 234.819C128.043 242.224 128.129 249.63 128.043 257.035C127.957 263.579 123.221 269.004 116.935 269.263C110.133 269.607 105.741 272.707 103.416 279.079Z" fill="#C886A9"/>
<path d="M108.239 9.81642C108.239 15.3274 103.933 19.6328 98.4222 19.7189C92.9974 19.8051 88.5197 15.3274 88.4336 9.90253C88.4336 4.56377 92.9974 0 98.3361 0C103.847 0 108.239 4.30545 108.239 9.81642Z" fill="#C886A9"/>
<path d="M131.144 26.6077C127.7 27.7271 124.342 28.7604 120.897 29.8798C120.036 29.4493 119.089 29.1048 118.228 28.5882C113.75 25.8327 112.2 20.0634 114.698 15.4996C117.195 10.9359 122.878 9.12757 127.614 11.3664C132.264 13.6052 134.417 19.2023 132.436 24.0244C132.092 24.8855 131.575 25.7466 131.144 26.6077Z" fill="#C886A9"/>
<path d="M175.835 66.9928C176.007 66.7345 176.266 66.5623 176.438 66.304C176.352 66.6484 176.352 67.0789 175.835 66.9928Z" fill="#316647"/>
<path d="M490.218 290.531H415.992V373.024H490.218V290.531Z" fill="#C886A9"/>
<path d="M646.075 290.531H571.849V373.024H646.075V290.531Z" fill="#C886A9"/>
<path d="M489.615 0.344238H414.959V90.1558H489.615V0.344238Z" fill="#C886A9"/>
<path d="M568.577 0.344238H493.921V372.938H568.577V0.344238Z" fill="#C886A9"/>
<path d="M357.61 191.937C377.76 171.787 390.246 143.888 390.246 113.147C390.246 51.6654 341.077 2.06667 279.596 1.72224C217.769 1.29169 167.482 51.4071 167.482 113.147H212.086C212.086 75.9481 242.569 45.81 279.854 46.3267C316.364 46.8433 345.986 77.0675 345.727 113.578C345.641 131.833 338.15 148.452 326.18 160.421L166.707 319.809C161.11 325.406 158.01 332.897 158.01 340.819V373.11H395.67V328.506H221.042L357.61 191.937Z" fill="#1C3D6D"/>
</svg>
