<svg width="310" height="147" viewBox="0 0 310 147" fill="none" xmlns="http://www.w3.org/2000/svg">
<path d="M282.551 0H27.4489C12.5603 0 0.5 11.2031 0.5 25.017V121.758C0.5 135.572 12.5603 146.775 27.4489 146.775H282.551C297.43 146.775 309.5 135.572 309.5 121.758V25.017C309.5 11.2031 297.43 0 282.551 0ZM35.8297 136.777H27.4489C18.5196 136.777 11.2834 130.054 11.2834 121.767V86.0534C11.2834 84.2109 12.8914 82.7178 14.8778 82.7178H32.2352C34.2216 82.7178 35.8297 84.2109 35.8297 86.0534V136.777ZM298.717 79.3734C298.717 81.2159 297.109 82.709 295.122 82.709H229.845C220.916 82.709 213.679 75.9854 213.679 67.6988C213.679 59.4122 220.916 52.6886 229.845 52.6886V42.6818C214.966 42.6818 202.896 53.8849 202.896 67.6988C202.896 81.5128 214.956 92.7159 229.845 92.7159H298.717V106.058H184.943V116.065H295.132C297.118 116.065 298.726 117.558 298.726 119.401V121.758C298.726 130.045 291.49 136.769 282.561 136.769H132.275L121.406 126.683C118.247 123.749 116.667 119.907 116.667 116.065H105.884C105.884 122.466 108.513 128.875 113.773 133.756L117.017 136.769H71.7458V116.065H60.9625V133.433C60.9625 135.275 59.3544 136.769 57.368 136.769H50.1791C48.1927 136.769 46.5847 135.275 46.5847 133.433V82.709H145.394C160.273 82.709 172.343 71.5059 172.343 57.692C172.343 43.878 160.283 32.675 145.394 32.675V42.6818C154.324 42.6818 161.56 49.4054 161.56 57.692C161.56 65.9873 154.324 72.7022 145.394 72.7022H11.2739V56.0242C11.2739 54.1817 12.8819 52.6886 14.8684 52.6886H44.8064V42.6818H11.2739V25.017C11.2739 16.7217 18.5101 10.0068 27.4395 10.0068H60.972V32.6662H71.6607V42.5857H77.0524V32.5876H71.7553V13.3424C71.7553 11.5 73.3633 10.0068 75.3498 10.0068H242.426C244.412 10.0068 246.02 11.5 246.02 13.3424V32.6662H256.803V10.0068H282.561C291.49 10.0068 298.726 16.7304 298.726 25.017V79.3734H298.717Z" fill="url(#paint0_linear_338_307)"/>
<path d="M246.089 32.6167V39.2876C246.089 41.13 244.482 42.6231 242.498 42.6231H229.939V52.6294H246.089V116.012H256.861V32.6167H246.089Z" fill="#1C3D6D"/>
<path d="M60.8496 32.6167V39.2876C60.8496 41.13 59.2432 42.6231 57.2587 42.6231H44.7002V52.6294H60.8496V116.012H71.6222V32.6167H60.8496Z" fill="#1C3D6D"/>
<path d="M145.156 32.9873H76.8462V42.9579H105.611V116.012H116.391V42.9579H145.156V32.9873Z" fill="#1C3D6D"/>
<path d="M184.936 32.6167C160.083 32.6167 139.932 51.2867 139.932 74.3142C139.932 97.3418 160.083 116.012 184.936 116.012C209.788 116.012 229.939 97.3418 229.939 74.3142C229.939 51.2867 209.788 32.6167 184.936 32.6167ZM184.936 106.013C166.045 106.013 150.728 91.8228 150.728 74.323C150.728 56.8231 166.045 42.6328 184.936 42.6328C203.826 42.6328 219.143 56.8231 219.143 74.323C219.134 91.8228 203.826 106.013 184.936 106.013Z" fill="#1C3D6D"/>
<defs>
<linearGradient id="paint0_linear_338_307" x1="43.3755" y1="172.898" x2="249.377" y2="-42.601" gradientUnits="userSpaceOnUse">
<stop offset="0.05" stop-color="#F2BF57"/>
<stop offset="0.5" stop-color="#D481AA"/>
<stop offset="0.5539" stop-color="#CB7EA7"/>
<stop offset="0.6418" stop-color="#B3759F"/>
<stop offset="0.7526" stop-color="#8B6692"/>
<stop offset="0.8806" stop-color="#555280"/>
<stop offset="1" stop-color="#1C3D6D"/>
</linearGradient>
</defs>
</svg>
