<svg width="94" height="96" viewBox="0 0 94 96" fill="none" xmlns="http://www.w3.org/2000/svg">
<path d="M94 95.125H-53V0.000382106H94V95.125Z" fill="#F2BF57"/>
<path d="M52.152 18.6414C48.5791 14.889 42.7864 14.889 39.2135 18.6414C35.6406 22.3937 35.6406 28.4773 39.2135 32.2296L44.2525 37.5214L62.8546 57.0578C66.4273 60.8102 72.2202 60.8102 75.7929 57.0578C79.3658 53.3057 79.3658 47.2219 75.7929 43.4695L57.1907 23.9332L52.152 18.6414Z" fill="#67293A"/>
<path d="M62.8546 57.0578C59.2817 53.3055 59.2817 47.2219 62.8546 43.4695C66.4275 39.7172 72.2202 39.7172 75.7931 43.4695C79.366 47.2219 79.366 53.3055 75.7931 57.0578C72.2202 60.8102 66.4275 60.8102 62.8546 57.0578Z" fill="#CB5345"/>
<path d="M57.2591 62.9336C60.832 66.6859 60.832 72.7695 57.2591 76.5219C53.6861 80.274 47.8935 80.274 44.3206 76.5219L39.2818 71.2298L20.6797 51.6934C17.1068 47.9413 17.1068 41.8575 20.6797 38.1054C24.2524 34.3531 30.0452 34.3531 33.6182 38.1054L52.2203 57.6418L57.2591 62.9336Z" fill="#67293A"/>
<path d="M20.6797 51.6935C24.2526 55.4459 30.0452 55.4459 33.6182 51.6935C37.1911 47.9412 37.1911 41.8576 33.6182 38.1053C30.0452 34.3532 24.2526 34.3532 20.6797 38.1053C17.1068 41.8576 17.1068 47.9412 20.6797 51.6935Z" fill="#CB5345"/>
</svg>
