<svg width="643" height="400" viewBox="0 0 643 400" fill="none" xmlns="http://www.w3.org/2000/svg">
<path d="M121.524 399.306C154.159 287.603 186.575 176.65 218.992 65.6961C218.861 65.5855 218.73 65.4754 218.6 65.3654C217.624 66.4842 216.735 67.7074 215.655 68.7013C212.763 71.361 211.424 74.8026 210.324 78.589C196.898 124.817 183.371 171.012 169.875 217.218C156.947 261.477 144.028 305.739 131.1 349.998C126.582 365.464 122.049 380.925 117.519 396.387C116.675 399.268 116.667 399.275 113.652 399.3C111.446 399.317 109.24 399.303 106.492 399.303C108.475 391.367 110.819 384.089 112.909 376.738C115.015 369.329 117.232 361.954 119.392 354.562C121.553 347.169 123.697 339.772 125.86 332.38C128.051 324.892 130.267 317.41 132.454 309.921C134.614 302.528 136.745 295.125 138.902 287.732C141.06 280.339 143.243 272.953 145.403 265.561C147.564 258.168 149.708 250.77 151.865 243.377C154.022 235.984 156.188 228.593 158.348 221.201C160.507 213.808 162.66 206.413 164.823 199.021C166.986 191.629 169.161 184.242 171.324 176.851C173.515 169.362 175.697 161.869 177.884 154.379C180.043 146.987 182.204 139.595 184.362 132.202C186.521 124.809 188.679 117.416 190.836 110.023C192.981 102.67 195.125 95.3173 196.968 87.7851C194.185 89.4645 191.521 90.7953 190.449 94.502C177.999 137.532 165.406 180.515 152.847 223.51C141.624 261.935 130.398 300.357 119.169 338.779C113.654 357.649 108.134 376.518 102.6 395.382C101.323 399.735 101.617 399.263 97.672 399.297C95.6769 399.313 93.6817 399.235 91.1657 399.191C120.277 299.322 149.386 200.021 178.489 100.163C174.984 101.451 172.799 102.785 171.767 106.396C163.854 134.07 155.713 161.673 147.642 189.297C139.172 218.284 130.703 247.271 122.232 276.258C110.605 316.04 98.9756 355.821 87.3461 395.602C87.1189 396.38 86.9906 397.223 86.6068 397.907C86.302 398.449 85.6899 399.146 85.192 399.167C82.317 399.287 79.4349 399.225 76.0378 399.225C78.1006 391.3 80.4172 383.997 82.5441 376.64C84.7111 369.143 86.8917 361.65 89.0787 354.159C91.2375 346.767 93.4169 339.381 95.5768 331.988C97.7656 324.499 99.9367 317.003 102.126 309.514C104.287 302.121 106.466 294.735 108.626 287.343C110.786 279.95 112.925 272.551 115.084 265.159C117.272 257.668 119.478 250.184 121.666 242.694C123.824 235.301 125.966 227.903 128.124 220.509C130.281 213.116 132.452 205.727 134.612 198.335C136.801 190.845 138.978 183.352 141.171 175.863C143.334 168.472 145.515 161.086 147.679 153.695C149.873 146.207 152.097 138.728 154.233 131.221C156.324 123.869 158.732 116.608 160.535 109.033C156.251 109.331 155.634 109.786 154.588 113.367C142.652 154.222 130.725 195.079 118.791 235.934C108.478 271.244 98.1558 306.552 87.8404 341.862C82.8108 359.079 77.7881 376.298 72.7602 393.516C72.4195 394.684 71.9845 395.827 71.7303 397.015C71.3754 398.674 70.5155 399.399 68.8647 399.323C66.3757 399.207 63.8809 399.236 60.8634 399.196C64.6684 385.153 68.797 371.733 72.7143 358.249C76.6723 344.624 80.6743 331.014 84.6517 317.396C88.6008 303.875 92.5411 290.351 96.4885 276.829C100.436 263.308 104.387 249.786 108.339 236.266C112.292 222.746 116.253 209.229 120.204 195.708C124.183 182.09 128.157 168.47 132.13 154.849C136.07 141.342 140.006 127.832 143.954 114.291C140.147 113.69 139.083 114.415 137.993 118.145C122.704 170.478 107.415 222.809 92.125 275.141C80.3877 315.314 68.6493 355.486 56.9096 395.658C56.6819 396.436 56.5436 397.278 56.1516 397.956C55.8414 398.491 55.2176 399.161 54.7114 399.181C51.8382 399.298 48.959 399.237 45.5378 399.237C73.031 304.906 100.519 211.117 127.871 117.293C124.325 116.055 123.281 116.564 122.313 119.875C113.524 149.931 104.747 179.99 95.9588 210.046C82.4506 256.247 68.9353 302.446 55.4247 348.647C50.817 364.404 46.2188 380.165 41.6105 395.921C40.6247 399.29 40.6123 399.29 37.1952 399.305C35.0912 399.313 32.9866 399.306 30.3246 399.306C39.5294 367.561 48.6736 336.39 57.7824 305.206C66.9036 273.981 76.0519 242.765 85.1561 211.535C94.2485 180.342 103.397 149.167 112.526 117.802C111.637 117.56 111.196 117.355 110.747 117.332C107.992 117.191 107.857 117.273 107.053 120.014C102.261 136.35 97.476 152.688 92.7018 169.03C84.6599 196.558 76.6281 224.088 68.5916 251.617C61.6909 275.256 54.7932 298.896 47.8873 322.532C40.7542 346.947 33.6134 371.36 26.4744 395.773C26.2754 396.453 26.1866 397.222 25.8146 397.78C25.4185 398.374 24.7652 399.152 24.1926 399.182C21.4094 399.326 18.6156 399.247 15.348 399.247C15.6629 397.841 15.8382 396.798 16.1308 395.791C20.9138 379.346 25.7051 362.904 30.5082 346.465C41.5911 308.529 52.6809 270.595 63.7691 232.661C74.5735 195.7 85.3803 158.74 96.1824 121.777C96.5455 120.536 96.8687 119.282 97.2942 117.729C96.2984 117.551 95.5886 117.404 94.8741 117.299C93.2415 117.06 92.4105 117.856 91.9549 119.499C90.573 124.481 89.087 129.431 87.6368 134.392C75.9819 174.273 64.3194 214.152 52.6721 254.035C42.0472 290.417 31.4417 326.803 20.8226 363.187C17.6139 374.179 14.3946 385.168 11.167 396.154C10.2483 399.28 10.2271 399.282 7.17255 399.303C4.96847 399.318 2.76438 399.305 0 399.305C4.45938 383.072 9.21774 367.521 13.7519 351.901C18.2719 336.329 22.8154 320.765 27.3578 305.2C31.9284 289.537 36.509 273.877 41.0861 258.217C45.6349 242.655 50.182 227.092 54.7326 211.53C59.312 195.871 63.9015 180.214 68.4739 164.552C73.0086 149.021 77.528 133.485 82.211 117.412C73.8331 117.178 65.9331 117.329 58.0379 117.302C50.1855 117.274 42.3326 117.296 34.4803 117.296H10.2983C10.2006 115.473 10.117 113.926 10.0146 112.021C11.6143 111.9 12.922 111.716 14.2303 111.715C38.9509 111.698 63.6714 111.702 88.3919 111.702C95.0813 111.702 101.771 111.775 108.459 111.693C147.417 111.211 180.06 95.7407 206.324 65.6658C219.627 50.4315 228.809 32.6179 234.453 12.8091C235.453 9.30012 236.531 5.81467 237.485 2.29274C237.921 0.680742 238.72 -0.065938 240.378 0.00452527C242.869 0.110838 245.367 0.0323669 248.293 0.0323669C247.956 1.55598 247.783 2.62157 247.484 3.64638C235.853 43.4285 224.199 83.2025 212.574 122.986C203.478 154.113 194.424 185.253 185.338 216.383C177.388 243.62 169.419 270.85 161.462 298.084C152.055 330.281 142.659 362.481 133.238 394.674C131.685 399.981 132.378 399.229 127.372 399.302C125.65 399.327 123.927 399.306 121.524 399.306Z" fill="#F1EDE5"/>
<path d="M419.185 17.728C396.861 -5.71749 360.667 -5.71749 338.343 17.728C316.018 41.1735 316.018 79.1849 338.343 102.63L369.827 135.695L486.058 257.762C508.381 281.208 544.576 281.208 566.899 257.762C589.223 234.318 589.223 196.305 566.899 172.86L450.668 50.7924L419.185 17.728Z" fill="#CB5345"/>
<path d="M486.057 257.762C463.733 234.317 463.733 196.305 486.057 172.86C508.382 149.414 544.575 149.414 566.9 172.86C589.224 196.305 589.224 234.317 566.9 257.762C544.575 281.208 508.382 281.208 486.057 257.762Z" fill="#F1EDE5"/>
<path d="M451.095 294.478C473.42 317.923 473.42 355.934 451.095 379.38C428.771 402.824 392.577 402.824 370.253 379.38L338.77 346.314L222.539 224.247C200.215 200.803 200.215 162.79 222.539 139.346C244.862 115.9 281.057 115.9 303.382 139.346L419.612 261.413L451.095 294.478Z" fill="#8C9C57"/>
<path d="M222.539 224.249C244.864 247.695 281.058 247.695 303.382 224.249C325.706 200.804 325.706 162.792 303.382 139.347C281.058 115.903 244.864 115.903 222.539 139.347C200.215 162.792 200.215 200.804 222.539 224.249Z" fill="#F1EDE5"/>
<path d="M10.2618 109.318V104.001C11.795 103.92 13.121 103.79 14.447 103.789C43.4315 103.778 72.416 103.702 101.4 103.811C120.236 103.882 138.233 99.9879 155.138 91.311C186.611 75.1564 207.78 49.454 218.731 14.5116C219.973 10.5502 221.055 6.53382 222.249 2.55512C222.99 0.0864308 223.029 0.0617108 225.506 0.0326601C227.896 0.00484565 230.287 0.0468759 232.862 0.0592379C232.779 1.08096 232.829 1.69411 232.672 2.24175C229.512 13.2482 226.464 24.2887 221.587 34.6592C212.856 53.2256 200.787 68.9254 185.151 81.542C165.597 97.3202 143.519 106.454 118.93 108.751C114.979 109.12 110.997 109.288 107.029 109.294C76.2032 109.337 45.3772 109.318 14.5511 109.318H10.2618Z" fill="#F1EDE5"/>
<path d="M10.2352 101.347V96.048C11.7271 95.962 13.0437 95.8199 14.3603 95.8193C42.273 95.802 70.1864 95.8205 98.0991 95.7871C111.216 95.7711 123.986 93.4723 136.204 88.4657C170.214 74.5276 192.802 49.2152 204.048 12.7585C205.123 9.27489 206.171 5.77955 207.112 2.25453C207.556 0.593077 208.411 -0.0713862 210.031 0.00896664C212.5 0.131968 214.975 0.124558 217.638 0.176478C217.547 1.21921 217.591 1.8336 217.43 2.38185C214.378 12.7801 211.701 23.3336 206.905 33.0593C189.537 68.2823 162.461 90.3287 125.502 98.8455C117.714 100.64 109.808 101.352 101.833 101.346C72.4664 101.327 43.0999 101.344 13.7329 101.347C12.6864 101.347 11.6394 101.347 10.2352 101.347Z" fill="#F1EDE5"/>
<path d="M10.2592 93.3982V88.1431C11.5387 88.0411 12.747 87.8613 13.9553 87.8606C39.4485 87.8446 64.9418 87.81 90.435 87.8644C103.969 87.8934 117.126 85.6924 129.625 80.2178C158.975 67.362 178.707 45.0375 188.659 13.2777C189.657 10.089 190.533 6.85815 191.515 3.66382C192.689 -0.155418 192.256 0.0386598 196.351 0.0330969C197.998 0.0306245 199.645 0.0596785 201.292 0.104182C201.569 0.111599 201.842 0.271067 202.265 0.407667C202.297 0.850226 202.466 1.36572 202.347 1.79282C198.891 14.2018 195.403 26.5854 188.966 37.7897C172.202 66.9658 147.909 84.8604 116.106 91.5278C109.819 92.8462 103.447 93.3957 97.0297 93.3939C69.2105 93.3852 41.3907 93.3951 13.5709 93.3982C12.614 93.3982 11.657 93.3982 10.2592 93.3982Z" fill="#F1EDE5"/>
<path d="M10.2472 85.4038V80.15C11.5538 80.0598 12.7662 79.9046 13.9785 79.9034C38.2959 79.8867 62.6139 79.9287 86.9306 79.8694C102.552 79.8311 117.264 75.8524 130.871 67.8066C151.694 55.4928 165.865 37.3405 173.381 13.5072C174.537 9.84001 175.53 6.11536 176.647 2.43396C177.341 0.147611 177.441 0.0777628 179.715 0.0357321C182.117 -0.00877102 184.52 0.0258385 187.053 0.0258385C187.107 0.852855 187.267 1.36588 187.149 1.79422C183.927 13.5301 180.622 25.2338 174.446 35.7544C158.516 62.8945 135.606 79.1703 105.604 84.2239C100.751 85.0416 95.7717 85.3334 90.8486 85.3538C65.1752 85.462 39.5012 85.4038 13.8273 85.4038C12.7732 85.4038 11.7191 85.4038 10.2472 85.4038Z" fill="#F1EDE5"/>
<path d="M171.953 0.144854C172.003 0.88719 172.102 1.20242 172.032 1.46882C168.529 14.7456 164.471 27.7696 156.616 39.0863C142.279 59.7401 123.169 72.3098 99.0878 76.2903C94.4207 77.0617 89.6423 77.3782 84.9134 77.4004C61.2723 77.5117 37.6305 77.4554 13.9888 77.4579C12.8518 77.4579 11.7147 77.4579 10.3057 77.4579V72.1318C11.7724 72.0495 13.0931 71.9111 14.4143 71.9099C36.6995 71.8913 58.9846 71.9154 81.2697 71.8752C94.5902 71.8518 107.217 68.7056 118.972 62.0852C138.304 51.1974 151.426 34.7664 158.356 12.9135C159.457 9.44106 160.4 5.91357 161.46 2.42626C162.149 0.160925 162.251 0.0688294 164.534 0.0465779C167.004 0.0218539 169.474 0.107149 171.953 0.144854Z" fill="#F1EDE5"/>
<path d="M156.655 0.0344443C156.799 0.880004 156.899 1.09325 156.856 1.26755C153.051 16.5643 147.826 31.1174 137.342 42.988C123.785 58.3372 107.173 67.1829 87.2759 69.0878C84.6751 69.3369 82.0567 69.4927 79.4465 69.4964C57.6463 69.5292 35.8462 69.5187 14.046 69.515C9.76377 69.5143 9.4795 69.1095 10.4853 64.195C11.6088 64.1251 12.8283 63.9848 14.0483 63.9836C34.6856 63.9619 55.3239 64.0843 75.9606 63.9205C107.547 63.6702 134.219 42.7859 143.71 11.1058C144.553 8.29287 145.345 5.46321 146.198 2.65333C146.956 0.159918 147.034 0.0876001 149.422 0.0443332C151.819 0.000448167 154.217 0.0344443 156.655 0.0344443Z" fill="#F1EDE5"/>
<path d="M141.756 0.0265417C135.118 34.2859 114.112 56.0628 84.1517 60.8123C81.0042 61.3111 77.7819 61.4705 74.5932 61.4798C54.3438 61.5385 34.0945 61.515 13.8445 61.5095C9.8436 61.5082 9.51284 61.0131 10.4828 56.2371C11.6039 56.1574 12.8204 55.9966 14.037 55.9954C32.7367 55.9756 51.4358 56.0207 70.135 55.9583C83.3124 55.9151 95.3434 51.9512 106.055 43.8349C116.335 36.045 123.579 25.8291 127.776 13.2718C128.961 9.72328 129.928 6.09504 131.028 2.51439C131.777 0.0778449 131.802 0.0642471 134.315 0.032724C136.705 0.00305528 139.097 0.0265417 141.756 0.0265417Z" fill="#F1EDE5"/>
<path d="M126.134 0.0302784C126.37 0.748509 126.444 0.852971 126.426 0.93456C123.301 15.0315 118.317 28.0858 107.729 38.0551C97.0337 48.1264 84.486 53.3592 70.1662 53.5008C51.4694 53.6862 32.7691 53.5595 14.0705 53.5601C9.81828 53.5601 9.46046 53.0545 10.5057 48.2408C11.6322 48.1678 12.854 48.0201 14.0758 48.0189C30.8369 48.0016 47.5979 48.0263 64.359 47.9911C70.8053 47.9775 77.1145 46.9564 83.1276 44.4425C98.0601 38.1991 108.142 27.0832 113.266 11.0689C114.191 8.17744 115.057 5.26187 115.835 2.32405C116.264 0.705246 117.054 -0.0562516 118.71 0.00617636C121.202 0.0995093 123.699 0.0302784 126.134 0.0302784Z" fill="#F1EDE5"/>
<path d="M224.776 363.441C224.776 383.24 209.493 399.29 190.641 399.29C171.789 399.29 156.506 383.24 156.506 363.441C156.506 343.642 171.789 327.592 190.641 327.592C209.493 327.592 224.776 343.642 224.776 363.441Z" fill="#F1EDE5"/>
<path d="M597.434 0.000357311V31.8856C597.434 40.6898 590.637 47.8276 582.254 47.8276H529.124V95.6555H597.434V398.562H642.974V0.000357311H597.434Z" fill="white"/>
</svg>
