<svg width="72" height="71" viewBox="0 0 72 71" fill="none" xmlns="http://www.w3.org/2000/svg">
<path d="M36.2895 0.0898438C16.7595 0.0898438 0.939453 15.9198 0.939453 35.4498C0.939453 54.9698 16.7695 70.7998 36.2895 70.7998C55.8195 70.7998 71.6395 54.9698 71.6395 35.4498C71.6495 15.9198 55.8195 0.0898438 36.2895 0.0898438ZM27.9595 50.6598L20.4695 50.6098L20.6194 26.4198L28.1095 26.4698L27.9595 50.6598ZM24.3495 23.2798C21.8995 23.2598 19.9295 21.2498 19.9495 18.7898C19.9595 16.3198 21.9595 14.3398 24.4095 14.3498C26.8595 14.3698 28.8294 16.3798 28.8094 18.8398C28.7894 21.2998 26.7895 23.2898 24.3495 23.2798ZM56.0195 50.8398L48.5594 50.7898C48.5594 50.7898 48.6195 41.5698 48.6395 38.0898C48.6595 34.6098 47.3495 32.6598 44.5995 32.6398C41.5995 32.6198 40.0195 34.6398 39.9995 38.0398C39.9795 41.7698 39.9195 50.7398 39.9195 50.7398L32.7394 50.6998L32.8895 26.5098L40.0695 26.5498L40.0495 29.8098C40.0495 29.8098 42.2294 25.8298 47.3694 25.8598C52.4994 25.8898 56.1495 29.0498 56.1095 35.5298C56.0795 41.9998 56.0195 50.8398 56.0195 50.8398Z" fill="#1B3C6A"/>
</svg>
