<svg width="301" height="264" viewBox="0 0 301 264" fill="none" xmlns="http://www.w3.org/2000/svg">
<path fill-rule="evenodd" clip-rule="evenodd" d="M91.4847 250.455H62.9231L121.451 14H150.014L91.4847 250.455Z" fill="white"/>
<path d="M91.4847 250.455H62.9231L121.451 14H150.014L91.4847 250.455Z" stroke="white" stroke-width="26.6667" stroke-miterlimit="10"/>
<path fill-rule="evenodd" clip-rule="evenodd" d="M179.98 250.455H151.418L209.946 14H238.509L179.98 250.455Z" fill="#1C3D6D"/>
<path d="M179.98 250.455H151.418L209.946 14H238.509L179.98 250.455Z" fill="#1C3D6D" stroke="#1C3D6D" stroke-width="26.6667" stroke-miterlimit="10"/>
<path fill-rule="evenodd" clip-rule="evenodd" d="M39.9058 102.26L46.9756 73.6989H283.431L276.361 102.26H39.9058Z" fill="#C886A9"/>
<path d="M39.9058 102.26L46.9756 73.6989H283.431L276.361 102.26H39.9058Z" stroke="#C886A9" stroke-width="26.6667" stroke-miterlimit="10"/>
<path fill-rule="evenodd" clip-rule="evenodd" d="M18 190.755L25.0698 162.194H261.525L254.455 190.755H18Z" fill="#E2BA56"/>
<path d="M18 190.819L25.0698 162.258H261.525L254.455 190.819H18Z" stroke="#E2BA56" stroke-width="26.6667" stroke-miterlimit="10"/>
</svg>
