<svg width="250" height="250" viewBox="0 0 250 250" fill="none" xmlns="http://www.w3.org/2000/svg">
<path d="M250 125C250 194.035 194.035 250 125 250C55.9648 250 0 194.035 0 125C0 55.9648 55.9648 1.52588e-05 125 1.52588e-05C194.035 1.52588e-05 250 55.9648 250 125Z" fill="#CC5344"/>
<path d="M218.162 124.999C218.162 176.452 176.451 218.163 124.999 218.163C73.5458 218.163 31.8345 176.452 31.8345 124.999C31.8345 73.5461 73.5458 31.8359 124.999 31.8359C176.451 31.8359 218.162 73.5461 218.162 124.999Z" fill="#92B5BB"/>
<path d="M186.326 125C186.326 158.87 158.869 186.327 124.998 186.327C91.1282 186.327 63.6714 158.87 63.6714 125C63.6714 91.1296 91.1282 63.6728 124.998 63.6728C158.869 63.6728 186.326 91.1296 186.326 125Z" fill="#CC5344"/>
<path d="M154.491 124.998C154.491 141.286 141.287 154.489 124.999 154.489C108.713 154.489 95.5083 141.286 95.5083 124.998C95.5083 108.711 108.713 95.5067 124.999 95.5067C141.287 95.5067 154.491 108.711 154.491 124.998Z" fill="#92B5BB"/>
</svg>
