<svg width="280" height="382" viewBox="0 0 280 382" fill="none" xmlns="http://www.w3.org/2000/svg">
<path d="M243.642 42.0074C246.969 42.0328 250.172 38.8352 250.151 35.5105C250.129 32.294 247.089 29.1951 243.832 29.0721C240.56 28.9485 237.271 32.1071 237.198 35.446C237.124 38.7489 240.3 41.9819 243.642 42.0074ZM251.749 49.9094C251.757 53.5251 254.549 56.3365 258.115 56.3199C261.482 56.3046 264.407 53.4115 264.458 50.046C264.513 46.4758 261.71 43.6289 258.119 43.6059C254.362 43.5822 251.741 46.176 251.749 49.9094ZM170.688 187.496C155.747 175.507 139.204 166.901 120.135 163.687C109.134 161.833 98.0914 161.963 87.087 163.532C73.7124 165.438 61.1255 169.585 49.9833 177.477C33.7322 188.987 24.0891 204.678 21.4539 224.33C19.2788 240.552 22.4912 255.756 32.2708 269.241C32.4151 269.441 32.4737 269.702 32.5719 269.935C32.4488 270.036 32.3276 270.138 32.2082 270.243C27.1046 266.23 23.1541 261.157 19.4148 255.95C9.68429 242.398 3.38077 227.338 1.12465 210.824C-3.04694 180.286 4.33467 152.717 24.1358 128.968C37.7429 112.649 54.5996 100.018 72.6763 89.0025C91.0735 77.7923 110.758 69.2256 130.582 60.9498C149.145 53.2004 167.815 45.6786 185.27 35.5448C196.866 28.8131 207.718 21.1027 217.226 11.5744C224.923 3.85982 234.146 -0.292244 245.199 0.0158646C261.706 0.475958 276.535 13.9257 278.78 30.2289C280.509 42.7809 276.327 53.1448 267.655 61.9581C246.256 83.7055 233.217 109.696 227.832 139.661C226.272 148.343 225.602 157.087 225.562 165.858C225.53 173.022 226.168 180.189 227.188 187.3C221.504 188.413 215.823 189.526 210.141 190.639C204.265 184.4 197.198 182.326 188.798 184.167C182.807 185.48 176.728 186.4 170.688 187.496Z" fill="#1C3D6D"/>
<path d="M170.688 187.496C176.728 186.4 182.806 185.479 188.799 184.166C197.198 182.326 204.265 184.399 210.14 190.637C215.129 197.229 215.721 204.325 213.268 212.134C209.235 224.971 205.559 237.922 201.808 250.848C199.959 257.22 197.77 263.498 196.391 270.004L196.449 269.99C196.088 269.96 196.066 270.201 196.074 270.463C195.848 271.186 195.612 271.907 195.398 272.634C190.495 289.269 185.572 305.898 180.728 322.551C180.227 324.273 179.523 324.958 177.632 324.895C173.336 324.753 169.03 324.893 164.729 324.918C158.029 324.876 151.33 324.835 144.631 324.793C147.424 314.464 150.217 304.136 153.012 293.808C154.068 289.903 155.126 285.998 156.183 282.096C157.045 279.101 158.023 276.132 158.745 273.101C159.781 268.751 156.342 265.525 152.062 266.846C138.535 271.023 125.032 275.276 111.52 279.5C102.132 281.709 92.6619 283.319 83.02 284.016C72.6957 284.762 62.7605 284.041 53.7136 278.305C40.1485 269.706 33.0768 253.55 36.1857 238.034C39.3856 222.066 51.6716 210.078 67.6483 207.084C101.768 200.689 135.872 194.206 169.981 187.754C170.224 187.708 170.453 187.584 170.688 187.496Z" fill="#E2BA56"/>
<path d="M196.39 270.003C197.769 263.497 199.958 257.219 201.807 250.847C205.558 237.922 209.234 224.971 213.267 212.132C215.72 204.324 215.129 197.228 210.14 190.636C215.822 189.524 221.504 188.412 227.188 187.299C233.4 186.592 239.496 185.22 245.611 183.999C261.557 180.816 274.228 194.541 269.636 210.122C265.314 224.783 261 239.447 256.694 254.113C256.53 254.673 256.482 255.266 256.379 255.843C254.312 261.835 252.568 267.922 251.017 274.065C248.53 280.887 246.779 287.933 244.694 294.878C241.881 304.25 239.139 313.646 236.415 323.045C236.02 324.409 235.331 324.907 233.897 324.873C230.095 324.782 226.289 324.887 222.486 324.821C221.045 324.795 220.462 325.216 220.225 326.758C219.114 333.999 223.871 339.876 231.201 340.054C234.773 340.141 238.054 341.068 240.871 343.289C243.076 345.027 244.314 347.219 243.446 350.153C241.092 350.195 238.737 350.277 236.382 350.273C221.973 350.248 207.564 350.204 193.154 350.165C192.918 349.366 193.353 348.675 193.564 347.969C200.895 323.504 207.444 298.82 214.288 274.218C214.901 272.014 215.226 269.84 213.408 268.063C211.489 266.187 209.275 266.349 206.814 267.091C203.364 268.132 200.059 269.737 196.39 270.003Z" fill="#C886A9"/>
<path d="M91.5497 360.399H223.144L228.383 360.289C234.369 360.289 239.912 360.351 245.436 360.351C257.515 360.351 267.051 356.691 276.792 351.248C279.019 350.005 279.675 347.766 278.689 345.617C277.685 343.429 275.326 342.443 272.94 343.363C271.53 343.908 270.151 344.589 268.861 345.379C260.988 350.205 252.941 350.154 243.447 350.154C241.093 350.196 238.738 350.278 236.383 350.274C221.973 350.249 207.564 350.204 193.155 350.166C192.399 350.209 191.636 350.2 190.889 350.306C188.878 350.591 187.724 350.333 187.798 347.72C187.864 345.394 185.994 343.845 184.124 342.58C181.832 341.029 179.266 340.041 176.538 340.119C167.808 340.366 162.632 333.689 164.728 324.918C158.029 324.876 151.33 324.834 144.631 324.792C142.307 332.512 139.884 340.203 137.727 347.968C137.175 349.954 136.328 350.344 134.447 350.338C112.386 350.273 90.3244 350.298 68.2636 350.29C67.4244 350.29 54.3644 349.548 49.1111 346.97C46.7681 345.821 44.4753 344.563 42.0968 343.494C39.6343 342.388 37.1469 343.28 36.0647 345.488C34.9872 347.686 35.6738 350.05 37.9956 351.305C46.6912 356.006 55.488 360.447 65.7407 360.436H86.044" fill="#C886A9"/>
<path d="M111.52 279.5C125.032 275.276 138.535 271.023 152.062 266.846C156.342 265.524 159.781 268.751 158.745 273.101C158.023 276.131 157.045 279.101 156.182 282.096C148.559 282.932 140.973 284.065 133.278 284.274C125.594 284.483 118.343 283.047 111.52 279.5Z" fill="#D481AA"/>
<path d="M251.018 274.066C252.569 267.922 254.313 261.835 256.38 255.844C260.45 260.56 264.439 265.342 268.845 269.763C270.558 271.482 271.082 273.688 269.891 276.048C268.723 278.363 266.785 279.321 264.291 279.123C259.384 278.734 254.969 276.992 251.018 274.066Z" fill="#1C3D6D"/>
<path d="M196.448 269.99C196.324 270.148 196.199 270.306 196.073 270.463C196.066 270.2 196.087 269.96 196.448 269.99Z" fill="#336848"/>
<path d="M234.647 371.214C234.647 376.897 230.04 381.505 224.357 381.505C218.673 381.505 214.065 376.897 214.065 371.214C214.065 365.531 218.673 360.924 224.357 360.924C230.04 360.924 234.647 365.531 234.647 371.214Z" fill="#C886A9"/>
<path d="M90.5759 371.214C90.5759 376.897 85.9685 381.505 80.2853 381.505C74.6016 381.505 69.9941 376.897 69.9941 371.214C69.9941 365.531 74.6016 360.924 80.2853 360.924C85.9685 360.924 90.5759 365.531 90.5759 371.214Z" fill="#C886A9"/>
</svg>
