<svg width="654" height="374" viewBox="0 0 654 374" fill="none" xmlns="http://www.w3.org/2000/svg">
<path d="M355.395 169.764C357.254 185.159 359.252 200.537 361.193 215.923C362.397 225.469 363.591 235.016 364.778 244.564C364.904 245.575 364.996 246.594 365.026 247.612C365.132 251.163 363.34 253.136 359.762 253.234C356.364 253.327 352.961 253.248 349.561 253.272C348.316 253.28 347.073 253.372 345.829 253.425C336.764 253.423 327.7 253.423 318.636 253.422C315.319 253.167 312.003 253.167 308.686 253.417C299.601 253.416 290.516 253.416 281.431 253.416C277.14 253.364 272.848 253.31 268.557 253.26C263.464 253.201 261.742 251.111 262.389 246.015C264.123 232.357 265.796 218.69 267.498 205.027C267.665 203.683 267.862 202.343 268.045 201.002C268.267 199.433 268.515 197.866 268.707 196.293C269.72 187.98 270.693 179.662 271.728 171.352C272.972 161.36 274.264 151.374 275.534 141.385C276.819 131.281 278.113 121.177 279.38 111.071C279.972 106.354 280.497 101.628 281.081 96.9099C281.282 95.294 280.655 94.6553 279.011 94.6853C274.817 94.7609 270.622 94.7321 266.427 94.7448C266.315 94.7223 266.205 94.6888 266.093 94.6801C261.548 94.3388 261.504 94.3342 262.032 89.8687C262.669 84.47 263.299 79.0673 264.095 73.6905C265.527 64.0245 273.392 56.4006 283.143 55.0561C284.266 54.9014 285.383 54.7154 286.503 54.5439L286.456 54.4942C286.223 69.2246 297.069 81.0199 312.277 82.019C326.232 82.9367 338.786 72.7134 340.813 58.2654C340.876 57.8167 340.946 57.361 340.932 56.9117C340.876 55.2305 341.731 54.8015 343.284 54.9533C349.614 55.573 354.706 58.4485 358.654 63.3552C361.268 66.6037 362.818 70.3588 363.364 74.491C364.092 79.9937 364.806 85.4986 365.421 91.014C365.772 94.1609 366.1 94.7136 362.509 94.5744C361.949 94.5525 361.383 94.683 360.82 94.7425C356.512 94.7292 352.204 94.7396 347.897 94.6922C346.417 94.6761 345.897 95.1762 346.157 96.7315C346.603 99.4083 346.834 102.12 347.173 104.815C348.429 114.807 349.692 124.798 350.955 134.789C351.945 142.62 352.94 150.45 353.933 158.281C354.187 158.874 355.004 166.532 355.395 169.764Z" fill="#C886A9"/>
<path d="M393.036 94.7198C391.591 94.5079 390.096 94.8977 388.434 94.3184C388.404 90.5432 389.266 86.8112 389.569 83.0371C389.803 80.116 390.301 77.2139 390.719 74.3089C392.146 64.3975 399.136 57.2483 408.935 55.2547C409.485 55.1426 410.067 55.1964 410.629 55.1276C412.3 54.9232 413.083 55.5117 413.195 57.328C413.61 64.0596 416.392 69.7003 421.218 74.4227C431.225 84.2164 446.832 84.9204 457.735 75.9815C463.545 71.218 466.628 64.9819 467.634 57.6225C467.98 55.0924 468.091 54.8498 470.554 55.1854C477.831 56.1781 483.459 59.8217 487.167 66.2092C489.011 69.3855 489.873 72.8715 490.229 76.5388C490.665 81.0331 491.338 85.5048 491.915 89.9853C491.987 90.5455 492.128 91.0982 492.176 91.6601C492.4 94.3462 492.237 94.5269 489.525 94.6465C488.847 94.6771 488.167 94.6655 487.487 94.673C483.295 94.6569 479.103 94.6072 474.912 94.6384C472.726 94.6546 472.691 94.7233 472.968 96.9687C474.338 108.086 475.722 119.202 477.114 130.316C479.829 151.986 482.547 173.656 485.286 195.322C485.51 197.098 486.003 202.205 486.186 203.631C486.689 207.55 487.173 211.471 487.67 215.391C488.508 221.999 489.36 228.604 490.187 235.212C490.677 239.133 491.293 243.048 491.559 246.985C491.88 251.732 490.254 253.291 485.438 253.318C481.132 253.342 476.827 253.325 472.522 253.326C463.454 253.331 454.385 253.335 445.317 253.34C441.995 253.361 438.672 253.383 435.35 253.403C426.25 253.399 417.149 253.393 408.049 253.389C403.857 253.367 399.664 253.352 395.471 253.324C390.098 253.287 388.394 251.177 389.127 245.96C390.008 239.699 390.642 233.404 391.422 227.129C392.217 220.743 393.075 214.366 393.876 207.98C394.664 201.706 395.402 195.424 396.184 189.149C396.981 182.761 397.887 176.385 398.586 169.987C398.99 166.295 400.029 162.639 399.454 158.867C400.238 156.268 400.673 153.613 400.999 150.915C402.425 139.113 403.948 127.323 405.426 115.527C406.2 109.349 406.99 103.171 407.692 96.9831C407.947 94.7423 407.841 94.6574 405.617 94.6442C401.423 94.6199 397.229 94.6892 393.036 94.7198Z" fill="#92B5BB"/>
<path d="M393.036 94.7207C397.229 94.6901 401.423 94.6208 405.617 94.6451C407.841 94.6584 407.947 94.7433 407.692 96.984C406.989 103.172 406.199 109.349 405.426 115.528C403.948 127.324 402.425 139.114 400.999 150.916C400.673 153.614 400.238 156.269 399.453 158.868C396.048 167.009 392.677 175.166 389.202 183.278C388.635 184.601 389.136 185.7 389.297 186.902C390.162 193.348 386.139 199.385 380.008 200.852C373.688 202.363 367.434 198.972 365.278 192.888C364.498 190.683 364.466 188.434 364.869 186.178C365.076 185.027 365.09 183.962 364.63 182.863C361.569 175.554 358.899 169.594 355.857 162.277C355.68 161.853 355.23 160.71 353.935 158.281C352.941 150.451 351.947 142.62 350.956 134.789C349.693 124.798 348.43 114.807 347.174 104.815C346.835 102.121 346.604 99.4085 346.158 96.7317C345.898 95.1764 346.418 94.6768 347.898 94.6924C352.205 94.7398 356.513 94.73 360.821 94.7427C361.25 97.971 361.677 101.199 362.109 104.427C363.476 114.641 364.416 124.913 366.785 134.983C369.128 144.946 372.588 154.499 376.707 163.828C377.794 163.693 377.76 162.728 378.053 162.064C384.96 146.38 389.157 130.001 390.81 112.943C391.4 106.855 392.285 100.795 393.036 94.7207Z" fill="#2B1D1B"/>
<path d="M266.427 94.7441C270.622 94.7319 274.818 94.7602 279.012 94.6846C280.656 94.6551 281.282 95.2933 281.082 96.9092C280.498 101.628 279.973 106.353 279.381 111.071C278.113 121.177 276.819 131.281 275.535 141.385C274.265 151.374 272.972 161.36 271.729 171.351C270.694 179.662 269.72 187.98 268.707 196.293C268.516 197.866 268.268 199.432 268.045 201.002C265.778 201.194 263.517 201.33 261.303 200.59C253.97 198.14 250.602 189.642 254.375 182.827C255.275 181.201 255.803 179.595 256.03 177.752C259.148 152.438 262.325 127.132 265.493 101.825C265.789 99.463 266.115 97.1044 266.427 94.7441Z" fill="#2B1D1B"/>
<path d="M491.61 200.939C489.965 201.131 487.672 201.689 486.317 200.514C484.949 199.327 485.51 197.099 485.285 195.323C482.546 173.657 479.828 151.987 477.114 130.317C475.721 119.202 474.338 108.087 472.967 96.9695C472.69 94.7241 472.725 94.6554 474.911 94.6392C479.102 94.608 483.294 94.6577 487.486 94.6739C489.293 108.932 491.114 123.187 492.905 137.447C494.598 150.921 496.246 164.401 497.959 177.873C498.127 179.191 498.163 180.556 498.989 181.761C503.915 188.94 500.099 198.805 491.61 200.939Z" fill="#2B1D1B"/>
<path d="M427.845 54.5463C423.763 54.5585 419.68 54.5365 415.598 54.5995C413.982 54.6249 413.076 54.231 413.092 52.3465C413.175 43.0524 412.899 33.7462 413.259 24.4637C413.689 13.3359 423.457 3.07157 434.795 0.712386C450.844 -2.62744 467.732 9.30421 467.684 27.9253C467.664 35.8611 467.698 43.7963 467.671 51.7315C467.662 54.5146 467.612 54.5544 464.811 54.5764C460.842 54.607 456.872 54.5729 452.902 54.5665C452.847 52.8721 452.879 51.169 452.717 49.4849C452.504 47.2736 453.255 45.7714 455.032 44.2958C459.384 40.6846 461.857 35.9212 462.476 30.2504C462.748 27.7532 462.755 27.7815 460.157 27.3334C452.567 26.023 447.815 21.5916 445.795 14.1941C445.533 13.2337 445.329 12.2571 445.102 11.3013C444.478 11.3706 444.288 11.8211 444.068 12.1924C438.603 21.4299 430.617 26.6912 419.829 27.4223C418.002 27.5465 417.856 28.4798 418.031 29.893C418.667 35.0064 420.442 39.7888 424.39 43.0559C427.523 45.6496 428.407 48.4869 427.958 52.1739C427.863 52.9576 427.88 53.7551 427.845 54.5463Z" fill="#E2BA56"/>
<path d="M301.132 54.549C296.24 54.5317 291.348 54.5132 286.456 54.4958C286.456 54.4953 286.504 54.5449 286.504 54.5449C286.481 44.9205 286.3 35.2937 286.477 25.6733C286.687 14.2747 296.001 3.32545 307.221 0.876742C320.689 -2.06112 333.469 4.45508 338.927 17.0549C340.201 19.994 340.934 23.0814 340.958 26.2763C341.022 34.7693 340.816 54.6714 340.816 54.8014C336.851 54.8383 330.203 54.6252 326.238 54.6223C326.183 52.9267 326.206 51.2253 326.054 49.539C325.857 47.3415 326.557 45.8041 328.347 44.3222C332.707 40.7109 335.128 35.9123 335.825 30.2727C336.144 27.6883 336.149 27.6554 333.492 27.4163C323.396 26.5067 315.841 21.5273 310.404 13.1087C310.004 12.4908 309.91 11.5991 309.069 11.3669C308.569 11.4737 308.58 11.8601 308.52 12.176C306.812 21.2218 302.218 25.8477 293.142 27.3632C291.377 27.6577 291.183 28.4818 291.369 29.8933C292.056 35.1159 293.891 39.9728 297.951 43.3202C300.898 45.751 301.71 48.3931 301.293 51.8421C301.184 52.7373 301.183 53.6469 301.132 54.549Z" fill="#E2BA56"/>
<path d="M301.132 54.5483C301.182 53.6462 301.184 52.7366 301.292 51.8414C301.71 48.3925 300.898 45.7503 297.95 43.3195C293.89 39.9722 292.055 35.1152 291.368 29.8926C291.183 28.4811 291.376 27.657 293.142 27.3625C302.217 25.8471 306.812 21.2211 308.519 12.1753C308.579 11.8594 308.568 11.473 309.069 11.3662C309.909 11.5984 310.004 12.4901 310.403 13.108C315.84 21.5266 323.395 26.506 333.491 27.4156C336.149 27.6547 336.143 27.6876 335.824 30.272C335.128 35.9116 332.706 40.7102 328.346 44.3215C326.556 45.8034 325.857 47.3408 326.054 49.5383C326.205 51.2246 326.182 52.926 326.237 54.6216C325.908 55.9292 325.935 57.2858 325.495 58.5933C323.664 64.0289 318.262 67.7517 312.777 67.2579C306.865 66.7248 302.236 62.3818 301.382 56.5604C301.284 55.8916 301.214 55.2194 301.132 54.5483Z" fill="#2B1D1B"/>
<path d="M427.844 54.5462C427.879 53.755 427.862 52.9574 427.958 52.1737C428.406 48.4868 427.522 45.6494 424.389 43.0558C420.442 39.7887 418.666 35.0062 418.031 29.8928C417.855 28.4796 418.001 27.5464 419.828 27.4222C430.617 26.691 438.602 21.4298 444.067 12.1923C444.287 11.8209 444.477 11.3705 445.101 11.3012C445.328 12.257 445.532 13.2336 445.794 14.194C447.814 21.5915 452.566 26.0228 460.156 27.3332C462.755 27.7814 462.748 27.7531 462.475 30.2503C461.857 35.921 459.384 40.6845 455.031 44.2957C453.254 45.7713 452.503 47.2734 452.716 49.4848C452.878 51.1688 452.847 52.872 452.901 54.5664C452.747 55.5673 452.659 56.5837 452.426 57.5661C451.026 63.4591 445.617 67.6081 439.808 67.2829C433.644 66.937 428.823 62.4202 428.016 56.2297C427.943 55.6706 427.901 55.1081 427.844 54.5462Z" fill="#2B1D1B"/>
<path d="M435.134 287.999C435.536 288.974 435.425 290.002 435.425 291.012C435.432 313.83 435.434 336.647 435.423 359.464C435.423 360.361 435.294 361.259 435.226 362.156C429.407 362.194 423.587 362.234 417.767 362.272C419.065 357.22 420.097 352.151 420.336 346.891C420.606 340.944 419.969 335.105 418.994 329.294C416.764 315.995 414.393 302.719 412.091 289.432C412.015 288.994 412.065 288.534 412.056 288.083C419.748 288.054 427.441 288.027 435.134 287.999Z" fill="#C886A9"/>
<path d="M308.665 287.758C308.737 289.111 308.871 290.464 308.872 291.817C308.885 314.106 308.885 336.396 308.873 358.686C308.873 359.925 308.736 361.165 308.665 362.403C302.829 362.365 296.991 362.327 291.153 362.288C292.779 356.856 293.373 351.255 293.832 345.638C294.166 341.558 293.456 337.531 292.911 333.521C290.86 318.442 287.668 303.555 285.223 288.541C285.187 288.323 285.235 288.091 285.244 287.866C293.052 287.905 300.859 288.098 308.665 287.758Z" fill="#92B5BB"/>
<path d="M318.693 362.413C318.643 361.398 318.55 360.384 318.549 359.369C318.541 336.424 318.541 313.479 318.548 290.533C318.549 289.632 318.634 288.73 318.68 287.828C320.039 287.862 321.398 287.914 322.757 287.925C329.102 287.978 335.447 288.02 341.792 288.065C341.631 293.632 340.163 298.998 339.241 304.445C337.299 315.907 334.844 327.294 333.683 338.868C332.947 346.219 333.725 353.543 335.808 360.68C335.965 361.22 336.084 361.771 336.22 362.317C330.378 362.349 324.535 362.381 318.693 362.413Z" fill="#92B5BB"/>
<path d="M445.388 362.25C445.343 361.462 445.261 360.674 445.26 359.886C445.254 336.833 445.254 313.781 445.264 290.728C445.264 289.829 445.37 288.93 445.426 288.03C453.1 288.064 460.775 288.099 468.448 288.133C468.229 293.474 466.868 298.641 465.987 303.879C464.186 314.597 462.006 325.251 460.725 336.056C459.711 344.601 460.14 353.012 462.742 361.26C462.842 361.576 462.821 361.93 462.857 362.267C457.034 362.261 451.211 362.256 445.388 362.25Z" fill="#C886A9"/>
<path d="M435.134 287.998C427.441 288.025 419.748 288.053 412.056 288.082C409.855 276.618 408.234 265.087 408.049 253.39C417.149 253.394 426.249 253.399 435.349 253.404C435.37 264.382 435.395 275.359 435.4 286.337C435.4 286.891 435.227 287.444 435.134 287.998Z" fill="#2B1D1B"/>
<path d="M308.664 287.757C300.859 288.098 293.051 287.904 285.243 287.865C283.278 276.458 281.51 265.029 281.431 253.414C290.516 253.415 299.601 253.415 308.686 253.417C308.678 264.864 308.671 276.311 308.664 287.757Z" fill="#2B1D1B"/>
<path d="M341.792 288.064C335.447 288.019 329.102 287.977 322.757 287.924C321.398 287.913 320.039 287.861 318.68 287.828C318.666 276.358 318.651 264.89 318.637 253.422C327.701 253.423 336.765 253.423 345.829 253.425C346.011 262.305 344.651 271.047 343.384 279.789C342.982 282.562 342.935 285.426 341.792 288.064Z" fill="#2B1D1B"/>
<path d="M468.449 288.133C460.775 288.098 453.101 288.064 445.427 288.03C445.371 281.797 445.289 275.564 445.267 269.331C445.248 264.001 445.297 258.671 445.316 253.342C454.384 253.336 463.453 253.332 472.521 253.327C472.706 262.163 471.364 270.863 470.091 279.559C469.671 282.433 469.631 285.399 468.449 288.133Z" fill="#2B1D1B"/>
<path d="M291.152 362.288C296.991 362.326 302.829 362.364 308.665 362.403C309.046 365.112 308.764 367.835 308.838 370.55C308.873 371.822 308.258 372.392 306.984 372.388C301.539 372.371 296.095 372.362 290.651 372.397C289.176 372.407 288.495 371.777 288.759 370.343C289.267 367.577 289.471 364.709 291.152 362.288Z" fill="#E2BA56"/>
<path d="M417.767 362.272C423.586 362.233 429.407 362.193 435.225 362.155C435.836 364.953 435.413 367.787 435.517 370.603C435.565 371.896 434.873 372.395 433.624 372.391C428.191 372.371 422.758 372.365 417.325 372.395C415.861 372.404 415.164 371.768 415.434 370.339C415.955 367.58 416.174 364.725 417.767 362.272Z" fill="#E2BA56"/>
<path d="M445.388 362.25C451.211 362.255 457.034 362.261 462.858 362.266C464.334 364.743 464.845 367.476 465.021 370.305C465.106 371.688 464.606 372.4 463.117 372.392C457.822 372.36 452.526 372.359 447.23 372.394C445.772 372.404 445.217 371.753 445.256 370.35C445.33 367.651 445.347 364.95 445.388 362.25Z" fill="#E2BA56"/>
<path d="M318.692 362.414C324.535 362.381 330.377 362.35 336.22 362.317C337.566 364.725 338.157 367.335 338.349 370.063C338.453 371.552 338.038 372.416 336.331 372.4C331.021 372.352 325.711 372.37 320.401 372.383C319.127 372.386 318.55 371.8 318.574 370.537C318.625 367.83 318.654 365.122 318.692 362.414Z" fill="#E2BA56"/>
<path d="M119.249 373.094C151.273 268.724 183.083 165.054 214.892 61.384C214.764 61.2806 214.636 61.1778 214.508 61.0744C213.55 62.1198 212.678 63.2638 211.618 64.1919C208.78 66.677 207.466 69.8927 206.387 73.4306C193.213 116.624 179.938 159.787 166.695 202.959C154.009 244.313 141.332 285.67 128.646 327.023C124.213 341.474 119.764 355.92 115.319 370.367C114.491 373.058 114.483 373.065 111.525 373.088C109.36 373.105 107.195 373.091 104.499 373.091C106.444 365.676 108.745 358.876 110.795 352.008C112.862 345.085 115.038 338.194 117.157 331.287C119.277 324.38 121.381 317.468 123.504 310.562C125.654 303.564 127.828 296.574 129.975 289.577C132.094 282.669 134.185 275.752 136.302 268.844C138.42 261.936 140.561 255.035 142.681 248.128C144.802 241.221 146.905 234.309 149.022 227.401C151.139 220.493 153.264 213.588 155.384 206.68C157.502 199.773 159.615 192.864 161.737 185.957C163.86 179.051 165.994 172.149 168.117 165.242C170.267 158.244 172.408 151.244 174.554 144.245C176.672 137.338 178.793 130.432 180.911 123.524C183.029 116.617 185.147 109.709 187.263 102.801C189.369 95.9309 191.472 89.0607 193.281 82.023C190.55 83.5921 187.936 84.8355 186.883 88.2989C174.666 128.503 162.31 168.666 149.986 208.839C138.973 244.74 127.957 280.641 116.938 316.54C111.526 334.171 106.11 351.802 100.679 369.427C99.4266 373.494 99.7148 373.054 95.8436 373.085C93.8858 373.102 91.928 373.028 89.4591 372.986C118.025 279.673 146.59 186.89 175.148 93.5873C171.708 94.7914 169.565 96.0383 168.552 99.4122C160.786 125.27 152.798 151.06 144.878 176.871C136.567 203.956 128.257 231.04 119.944 258.123C108.534 295.294 97.1229 332.464 85.711 369.634C85.4881 370.361 85.3622 371.148 84.9856 371.787C84.6864 372.294 84.0858 372.945 83.5972 372.964C80.776 373.076 77.9479 373.019 74.6144 373.019C76.6386 365.614 78.9118 358.791 80.999 351.916C83.1254 344.911 85.2651 337.91 87.4112 330.911C89.5296 324.003 91.6681 317.103 93.7877 310.195C95.9355 303.197 98.066 296.194 100.214 289.197C102.334 282.289 104.473 275.388 106.593 268.48C108.712 261.573 110.811 254.66 112.93 247.753C115.076 240.754 117.242 233.761 119.388 226.763C121.507 219.855 123.608 212.942 125.725 206.034C127.843 199.127 129.972 192.223 132.093 185.316C134.24 178.318 136.377 171.316 138.528 164.319C140.651 157.413 142.791 150.512 144.915 143.606C147.067 136.609 149.25 129.621 151.345 122.607C153.398 115.738 155.761 108.953 157.53 101.876C153.326 102.154 152.721 102.581 151.694 105.926C139.982 144.098 128.278 182.274 116.568 220.447C106.447 253.439 96.3184 286.429 86.1961 319.421C81.2606 335.508 76.332 351.597 71.3982 367.684C71.0638 368.775 70.637 369.844 70.3875 370.953C70.0393 372.504 69.1955 373.181 67.5756 373.109C65.1332 373.002 62.6851 373.029 59.7241 372.991C63.4578 359.871 67.5091 347.331 71.3531 334.731C75.237 322.002 79.1642 309.285 83.0671 296.561C86.9423 283.927 90.8088 271.292 94.6822 258.658C98.5563 246.024 102.433 233.39 106.311 220.757C110.19 208.125 114.077 195.494 117.954 182.861C121.859 170.137 125.758 157.411 129.657 144.685C133.523 132.063 137.386 119.441 141.259 106.79C137.524 106.226 136.479 106.904 135.41 110.39C120.407 159.286 105.405 208.183 90.4005 257.08C78.8829 294.615 67.3642 332.151 55.8443 369.686C55.6208 370.412 55.4851 371.2 55.1005 371.832C54.7961 372.333 54.1839 372.958 53.6872 372.977C50.8678 373.087 48.0425 373.031 44.6854 373.031C71.6639 284.891 98.6377 197.259 125.478 109.593C121.998 108.437 120.973 108.913 120.023 112.006C111.399 140.089 102.786 168.175 94.1625 196.258C80.9071 239.426 67.6449 282.593 54.3872 325.761C49.8658 340.484 45.3536 355.209 40.8316 369.931C39.8642 373.08 39.8521 373.08 36.499 373.092C34.4343 373.101 32.3691 373.094 29.757 373.094C38.7894 343.434 47.7624 314.308 56.7008 285.172C65.6512 255.996 74.6283 226.829 83.562 197.649C92.4842 168.504 101.462 139.376 110.419 110.069C109.547 109.843 109.115 109.652 108.674 109.63C105.971 109.499 105.838 109.575 105.049 112.137C100.347 127.4 95.6513 142.665 90.9665 157.934C83.0752 183.655 75.1937 209.378 67.3076 235.101C60.5361 257.188 53.7675 279.275 46.9909 301.36C39.9913 324.173 32.9842 346.983 25.9788 369.792C25.7836 370.429 25.6964 371.147 25.3314 371.668C24.9427 372.224 24.3017 372.95 23.7397 372.978C21.0086 373.113 18.2671 373.039 15.0607 373.039C15.3697 371.725 15.5418 370.75 15.8288 369.81C20.5223 354.444 25.224 339.081 29.9371 323.722C40.8125 288.276 51.6948 252.833 62.5753 217.389C73.1775 182.854 83.782 148.32 94.3819 113.784C94.7383 112.624 95.0553 111.451 95.4729 110.001C94.4957 109.834 93.7992 109.698 93.0981 109.6C91.496 109.375 90.6806 110.12 90.2336 111.655C88.8775 116.31 87.4193 120.935 85.9963 125.57C74.5596 162.834 63.1153 200.094 51.6861 237.36C41.2601 271.353 30.8531 305.351 20.4328 339.345C17.2842 349.617 14.1251 359.884 10.9579 370.149C10.0564 373.07 10.0356 373.072 7.03829 373.091C4.87546 373.105 2.71263 373.094 0 373.094C4.3759 357.926 9.04519 343.396 13.4944 328.801C17.9298 314.251 22.3883 299.709 26.8457 285.165C31.3307 270.531 35.8256 255.899 40.317 241.267C44.7807 226.726 49.2426 212.185 53.708 197.645C58.2018 183.013 62.7053 168.384 67.1921 153.751C71.6419 139.239 76.0767 124.723 80.6721 109.705C72.451 109.487 64.6989 109.627 56.9514 109.602C49.2461 109.576 41.5402 109.596 33.8348 109.596H10.1055C10.0097 107.893 9.92765 106.448 9.82716 104.668C11.3969 104.555 12.6801 104.383 13.964 104.382C38.2217 104.366 62.4795 104.37 86.7372 104.37C93.3014 104.37 99.8655 104.438 106.429 104.362C144.658 103.911 176.69 89.4563 202.462 61.3557C215.516 47.1214 224.526 30.4772 230.064 11.9681C231.045 8.68951 232.104 5.43343 233.039 2.14269C233.468 0.636508 234.251 -0.0617203 235.878 0.00411751C238.322 0.103452 240.773 0.0300962 243.645 0.0300962C243.314 1.45427 243.145 2.44994 242.851 3.40747C231.438 40.5775 220.002 77.7412 208.594 114.914C199.669 143.997 190.784 173.092 181.868 202.179C174.068 227.628 166.247 253.071 158.439 278.517C149.209 308.6 139.988 338.687 130.744 368.767C129.22 373.725 129.9 373.023 124.987 373.09C123.297 373.114 121.607 373.094 119.249 373.094Z" fill="#92B5BB"/>
<path d="M10.0693 102.142V97.1741C11.5738 97.099 12.8749 96.9772 14.1761 96.9766C42.618 96.9662 71.06 96.8952 99.5013 96.9974C117.985 97.0632 135.645 93.4248 152.234 85.3175C183.117 70.2234 203.89 46.2082 214.637 13.5596C215.855 9.8582 216.917 6.10544 218.088 2.38792C218.815 0.0812847 218.854 0.0581874 221.284 0.0310438C223.63 0.00505517 225.976 0.0443264 228.502 0.0558769C228.422 1.01052 228.47 1.58343 228.316 2.09569C225.215 12.3791 222.224 22.6948 217.439 32.3845C208.871 49.7322 197.028 64.4013 181.685 76.1898C162.497 90.9322 140.832 99.4663 116.703 101.613C112.826 101.958 108.919 102.115 105.025 102.121C74.7763 102.16 44.5273 102.143 14.2783 102.142H10.0693Z" fill="#92B5BB"/>
<path d="M10.0439 94.6943V89.7438C11.508 89.6629 12.7999 89.5307 14.0918 89.5295C41.4821 89.5134 68.8729 89.5313 96.2631 89.4995C109.134 89.4845 121.666 87.3373 133.655 82.6587C167.028 69.6356 189.193 45.9853 200.229 11.9218C201.284 8.6663 202.312 5.40097 203.236 2.10735C203.671 0.554389 204.51 -0.0664513 206.1 0.00862684C208.522 0.123554 210.951 0.11663 213.565 0.165143C213.475 1.13943 213.519 1.71348 213.36 2.22575C210.366 11.9414 207.738 21.8021 203.032 30.8894C185.989 63.8002 159.421 84.3994 123.153 92.3577C115.511 94.0342 107.753 94.699 99.9275 94.6938C71.1102 94.6759 42.2935 94.6914 13.4762 94.6943H10.0439Z" fill="#92B5BB"/>
<path d="M10.0684 87.2666V82.3559C11.3239 82.2606 12.5096 82.0931 13.6952 82.0926C38.7113 82.0775 63.7273 82.0446 88.7434 82.096C102.024 82.1232 114.935 80.066 127.2 74.9515C156 62.939 175.363 42.0805 185.128 12.405C186.108 9.42612 186.968 6.40682 187.931 3.42217C189.084 -0.145772 188.659 0.0355746 192.676 0.0297994C194.293 0.0274893 195.909 0.0552089 197.525 0.0967907C197.797 0.103721 198.065 0.252143 198.48 0.380354C198.512 0.793861 198.677 1.27552 198.56 1.67401C195.17 13.2684 191.747 24.8397 185.43 35.3079C168.98 62.5688 145.141 79.2893 113.934 85.519C107.764 86.7503 101.511 87.2643 95.2145 87.2626C67.9161 87.2545 40.6171 87.2631 13.3181 87.2666H10.0684Z" fill="#92B5BB"/>
<path d="M10.0557 79.7976V74.8887C11.3378 74.8044 12.5275 74.6594 13.7172 74.6588C37.5793 74.6421 61.4421 74.6825 85.3036 74.6265C100.633 74.5901 115.069 70.8731 128.421 63.3549C148.855 51.8501 162.761 34.8888 170.136 12.6206C171.27 9.19412 172.244 5.71454 173.34 2.27423C174.021 0.137969 174.119 0.0727062 176.351 0.0334345C178.708 -0.00872476 181.066 0.0241904 183.552 0.0241904C183.605 0.796918 183.762 1.27627 183.646 1.67649C180.484 12.6425 177.241 23.5774 171.181 33.4074C155.549 58.7659 133.068 73.9733 103.628 78.6951C98.8651 79.4592 93.9792 79.7318 89.1482 79.7514C63.9554 79.8525 38.7621 79.7976 13.5687 79.7976H10.0557Z" fill="#92B5BB"/>
<path d="M168.734 0.135377C168.784 0.828984 168.881 1.1241 168.812 1.37243C165.375 13.7777 161.393 25.9467 153.685 36.5206C139.616 55.8185 120.863 67.5631 97.2334 71.2823C92.6537 72.0031 87.9647 72.2988 83.3243 72.3196C60.1258 72.4241 36.9266 72.371 13.7274 72.3733H10.1133V67.3968C11.5525 67.3199 12.8484 67.1906 14.145 67.1894C36.013 67.1721 57.8809 67.1946 79.7489 67.1577C92.82 67.1351 105.211 64.1955 116.745 58.0097C135.716 47.8366 148.592 32.4848 155.392 12.0659C156.473 8.82135 157.398 5.52541 158.438 2.26702C159.114 0.149816 159.214 0.0643437 161.454 0.0435528C163.878 0.0204518 166.302 0.100148 168.734 0.135377Z" fill="#92B5BB"/>
<path d="M153.723 0.0296566C153.864 0.819133 153.962 1.01896 153.92 1.18124C150.186 15.4744 145.059 29.0722 134.771 40.1636C121.468 54.5052 105.167 62.7702 85.6423 64.5501C83.0902 64.7823 80.5208 64.9278 77.9595 64.9319C56.5674 64.9625 35.1754 64.9521 13.7833 64.9486C9.5812 64.948 9.30226 64.5703 10.2892 59.9784C11.3917 59.9126 12.5884 59.7821 13.7856 59.7809C34.0365 59.7607 54.2885 59.8751 74.5388 59.722C105.534 59.4881 131.706 39.9741 141.02 10.3737C141.847 7.74539 142.625 5.10148 143.462 2.47663C144.205 0.146316 144.282 0.0793231 146.625 0.0388963C148.977 -0.00268542 151.331 0.0296566 153.723 0.0296566Z" fill="#92B5BB"/>
<path d="M139.102 0.0235521C132.589 32.0346 111.976 52.3813 82.5762 56.819C79.4876 57.2851 76.3257 57.4341 73.1966 57.4428C53.3263 57.4982 33.456 57.4757 13.5851 57.4711C9.65913 57.4699 9.33456 57.0067 10.2863 52.5442C11.3865 52.4697 12.5802 52.3195 13.774 52.3184C32.1237 52.3005 50.4728 52.3421 68.8219 52.2843C81.7527 52.2433 93.5584 48.5402 104.069 40.9562C114.158 33.6776 121.265 24.1329 125.383 12.3999C126.547 9.08376 127.495 5.69368 128.575 2.34808C129.31 0.0714832 129.335 0.0593552 131.8 0.0299014C134.146 0.00218025 136.493 0.0235521 139.102 0.0235521Z" fill="#92B5BB"/>
<path d="M123.772 0.0281291C124.004 0.699213 124.077 0.796817 124.059 0.873628C120.993 14.0452 116.101 26.242 105.712 35.5569C95.217 44.967 82.9042 49.8558 68.8524 49.9886C50.5056 50.1619 32.1554 50.0435 13.8068 50.0441C9.63421 50.0441 9.28308 49.5716 10.3088 45.0739C11.4141 45.0057 12.6131 44.8677 13.812 44.8666C30.2593 44.8504 46.7067 44.8735 63.154 44.8406C69.4796 44.8279 75.6707 43.8738 81.5712 41.525C96.2242 35.6914 106.118 25.3052 111.145 10.3416C112.053 7.64106 112.903 4.9163 113.667 2.17133C114.087 0.658789 114.863 -0.0527207 116.487 0.00560925C118.932 0.0922379 121.383 0.0281291 123.772 0.0281291Z" fill="#92B5BB"/>
<path d="M243.278 328.228C243.278 352.998 223.197 373.078 198.427 373.078C173.657 373.078 153.576 352.998 153.576 328.228C153.576 303.457 173.657 283.376 198.427 283.376C223.197 283.376 243.278 303.457 243.278 328.228Z" fill="#E2BA56"/>
<path d="M586.25 0.000297672V29.7919C586.25 38.0187 579.581 44.688 571.354 44.688H519.219V89.3757H586.25V372.398H630.938V0.000297672H586.25Z" fill="#C886A9"/>
<path d="M645.833 13.0349C642.748 13.0349 640.248 10.5343 640.248 7.44913C640.248 4.36399 642.748 1.86273 645.833 1.86273C648.919 1.86273 651.419 4.36399 651.419 7.44913C651.419 10.5343 648.919 13.0349 645.833 13.0349ZM645.833 0.0013728C641.72 0.0013728 638.386 3.33542 638.386 7.44913C638.386 11.5623 641.72 14.8975 645.833 14.8975C649.947 14.8975 653.281 11.5623 653.281 7.44913C653.281 3.33542 649.947 0.0013728 645.833 0.0013728ZM646.33 6.9669H644.745V5.22855H646.253C646.952 5.22855 647.3 5.51789 647.3 6.09772C647.3 6.6764 646.977 6.9669 646.33 6.9669ZM648.451 8.73008C648.417 8.08325 648.162 7.65646 647.684 7.45202C648.315 7.17942 648.63 6.6764 648.63 5.94468C648.63 5.34809 648.421 4.88781 648.004 4.56439C647.586 4.2404 647.02 4.07812 646.304 4.07812H643.467V10.5955H644.745V8.06592H646.33C646.636 8.06592 646.849 8.12945 646.969 8.25709C647.088 8.38472 647.165 8.62786 647.199 8.98592L647.25 9.65065C647.267 10.0757 647.352 10.3916 647.505 10.5955H648.834C648.647 10.3402 648.544 10.0249 648.528 9.65065L648.451 8.73008Z" fill="#2C1A18"/>
</svg>
