<svg width="641" height="382" viewBox="0 0 641 382" fill="none" xmlns="http://www.w3.org/2000/svg">
<path d="M594.272 0.0821888V30.5891C594.272 39.0127 587.442 45.842 579.018 45.842H525.632V91.6017H594.272V381.415H640.031V0.0821888H594.272Z" fill="#C886A9"/>
<path d="M351.9 310.079C354.281 310.181 355.961 309.415 357.589 307.721C394.404 269.403 431.39 231.248 468.087 192.817C489.574 170.315 497.939 142.97 493.313 111.468C489.931 88.4352 479.415 68.6411 462.106 52.6649C438.116 30.5207 410.001 21.4602 378.347 25.7885C354.165 29.0949 334.42 40.4447 319.074 58.9135C304.694 76.2196 297.792 96.5583 297.476 119.387C297.467 120.057 297.417 121.36 297.413 122.554H309.734C309.766 121.469 309.787 120.321 309.844 119.74C310.39 114.225 310.509 108.61 311.572 103.215C320.389 58.5095 363.128 29.9784 408.823 38.4878C456.975 47.4555 490.916 94.608 480.263 144.649C476.929 160.308 469.319 173.613 458.343 184.998C419.452 225.341 380.593 265.714 341.724 306.079C340.769 307.071 339.847 308.093 338.484 309.557C339.607 309.821 340.013 309.994 340.413 309.997C344.243 310.027 348.072 309.916 351.9 310.079Z" fill="#F1EDE5"/>
<path d="M440.048 167.866C395.798 213.76 351.589 259.693 307.365 305.612C306.696 306.308 305.993 306.974 305.371 307.709C304.927 308.235 304.592 308.855 303.971 309.792C305.361 309.896 306.31 310.019 307.256 310.028C310.209 310.055 313.169 309.859 316.113 310.088C319.221 310.33 321.355 309.236 323.47 307.035C363.906 264.918 404.424 222.88 444.924 180.825C447.009 178.66 449.126 176.525 451.153 174.308C464.123 160.116 470.408 143.153 469.935 123.636C469.598 109.671 465.675 96.4626 457.627 84.6805C440.263 59.2642 416.227 47.4431 386.217 49.7045C367.281 51.1315 351.587 59.6001 339.342 73.753C328.362 86.4452 322.671 101.445 322.219 118.536C322.199 119.287 322.208 121.09 322.221 122.554H334.485C334.554 119.956 334.528 117.146 334.743 114.982C338.182 80.4143 369.259 56.8756 404.003 62.4872C440.139 68.3235 464.667 104.87 455.918 139.822C453.197 150.69 447.731 159.897 440.048 167.866Z" fill="#F1EDE5"/>
<path d="M410.754 297.893C408.896 297.893 407.034 297.837 405.175 297.733C404.484 297.695 403.797 297.446 402.598 297.179C403.775 295.908 404.613 294.971 405.484 294.065C430.574 268.008 455.669 241.956 480.756 215.897C483.733 212.804 486.804 209.788 489.605 206.539C512.097 180.448 521.896 149.92 518.48 114.822C516.787 97.4196 511.674 80.9148 502.626 65.7134C479.316 26.5481 445.131 4.4251 400.264 0.466998C375.489 -1.71874 352.3 3.81246 331.186 16.193C308.892 29.2654 292.627 47.7691 282.379 71.5781C276.644 84.8995 273.657 98.9371 272.974 113.552C272.862 115.948 272.752 120.742 272.712 122.553H285.146C285.218 121.187 285.288 120.076 285.33 118.966C285.445 115.918 285.422 112.852 285.674 109.82C287.766 84.7179 297.249 62.9285 314.554 45.2416C341.565 17.6354 375.058 7.25073 413.927 14.7104C473.615 26.1654 515.781 84.4352 505.303 145.872C501.585 167.674 491.841 186.327 476.704 202.051C443.429 236.616 410.142 271.171 376.86 305.731C376.19 306.427 375.475 307.086 374.868 307.834C374.447 308.352 373.775 309.684 373.775 309.684L530.12 309.367L530.121 297.899C530.121 297.899 448.928 297.901 410.754 297.893Z" fill="#F1EDE5"/>
<path d="M481.287 322.411H456.674H431.733H407.12H382.507H357.566H332.953C324.639 322.411 316.326 322.426 308.011 322.407C299.846 322.387 291.682 322.496 283.033 322.323C283.172 320.247 283.123 318.629 283.412 317.087C284.236 312.684 286.535 309.118 289.589 305.959C301.827 293.303 314.023 280.606 326.235 267.925C361.382 231.428 396.531 194.932 431.675 158.432C441.142 148.599 445.773 136.781 445.21 122.816C444.029 93.5297 417.622 70.8591 388.635 74.2684C364.973 77.0515 347.497 96.1193 346.781 119.968C346.764 120.534 346.817 121.613 346.885 122.553H358.919C358.991 121.589 359.086 120.274 359.151 119.524C361.041 97.7663 379.755 83.1255 400.993 86.7856C428.581 91.5408 442.298 123.977 425.931 145.841C424.329 147.982 422.465 149.938 420.607 151.868C373.484 200.827 326.361 249.786 279.189 298.696C273.119 304.989 270.141 312.377 270.587 321.303C270.946 328.519 271.62 381.413 271.62 381.413H530.121V371.562H284.898C284.757 367.744 284.621 364.486 284.52 361.227C284.477 359.855 285.291 359.31 286.572 359.295C287.447 359.285 288.321 359.262 289.195 359.262C299.478 359.26 309.761 359.26 320.044 359.26C389.187 359.26 530.121 359.054 530.121 359.054V347.129C530.121 347.129 409.53 347.127 350.896 347.127C330.222 347.127 309.547 347.134 288.871 347.115C287.378 347.113 285.877 346.929 284.129 346.814C283.732 342.753 283.375 339.007 283.909 334.788H333.57H383.124H432.35C448.869 334.788 465.386 334.795 481.904 334.786C498.385 334.777 530.121 334.749 530.121 334.749V322.411H506.228H481.287Z" fill="#F1EDE5"/>
<path d="M243.642 42.0078C246.969 42.0333 250.172 38.8357 250.151 35.511C250.129 32.2944 247.089 29.1956 243.832 29.0726C240.56 28.949 237.271 32.1076 237.198 35.4465C237.124 38.7493 240.3 41.9824 243.642 42.0078ZM251.749 49.9099C251.757 53.5256 254.549 56.337 258.115 56.3204C261.482 56.305 264.407 53.412 264.458 50.0465C264.513 46.4763 261.71 43.6294 258.119 43.6064C254.362 43.5827 251.741 46.1765 251.749 49.9099ZM170.688 187.497C155.747 175.508 139.204 166.901 120.135 163.687C109.134 161.833 98.0914 161.964 87.087 163.532C73.7124 165.438 61.1255 169.586 49.9833 177.478C33.7322 188.988 24.0891 204.679 21.4539 224.331C19.2788 240.552 22.4912 255.757 32.2708 269.242C32.4151 269.441 32.4737 269.703 32.5719 269.935C32.4488 270.036 32.3276 270.138 32.2082 270.243C27.1046 266.23 23.1541 261.158 19.4148 255.95C9.68429 242.399 3.38077 227.339 1.12465 210.824C-3.04694 180.286 4.33467 152.717 24.1358 128.968C37.7429 112.649 54.5996 100.018 72.6763 89.003C91.0735 77.7928 110.758 69.2261 130.582 60.9503C149.145 53.2009 167.815 45.6791 185.27 35.5452C196.866 28.8136 207.718 21.1032 217.226 11.5749C224.923 3.86031 234.146 -0.291756 245.199 0.0163529C261.706 0.476446 276.535 13.9262 278.78 30.2293C280.509 42.7814 276.327 53.1453 267.655 61.9586C246.256 83.706 233.217 109.696 227.832 139.661C226.272 148.344 225.602 157.087 225.562 165.859C225.53 173.023 226.168 180.19 227.188 187.301C221.504 188.414 215.823 189.526 210.141 190.639C204.265 184.4 197.198 182.327 188.798 184.167C182.807 185.48 176.728 186.401 170.688 187.497Z" fill="#1C3D6D"/>
<path d="M170.688 187.496C176.728 186.4 182.806 185.479 188.799 184.166C197.198 182.326 204.265 184.399 210.14 190.637C215.129 197.229 215.721 204.325 213.268 212.134C209.235 224.971 205.559 237.923 201.808 250.848C199.959 257.22 197.77 263.499 196.391 270.004L196.449 269.99C196.088 269.961 196.066 270.201 196.074 270.463C195.848 271.187 195.612 271.908 195.398 272.634C190.495 289.269 185.572 305.898 180.728 322.551C180.227 324.273 179.523 324.958 177.632 324.895C173.336 324.753 169.03 324.893 164.729 324.918C158.029 324.876 151.33 324.835 144.631 324.793C147.424 314.464 150.217 304.137 153.012 293.808C154.068 289.903 155.126 285.998 156.183 282.096C157.045 279.101 158.023 276.132 158.745 273.102C159.781 268.751 156.342 265.525 152.062 266.846C138.535 271.023 125.032 275.277 111.52 279.5C102.132 281.71 92.6619 283.319 83.02 284.016C72.6957 284.762 62.7605 284.041 53.7136 278.306C40.1485 269.706 33.0768 253.55 36.1857 238.034C39.3856 222.067 51.6716 210.078 67.6483 207.084C101.768 200.689 135.872 194.207 169.981 187.754C170.224 187.709 170.453 187.584 170.688 187.496Z" fill="#E2BA56"/>
<path d="M196.39 270.003C197.769 263.498 199.958 257.22 201.807 250.847C205.558 237.922 209.234 224.971 213.267 212.133C215.72 204.325 215.129 197.229 210.14 190.637C215.822 189.525 221.504 188.413 227.188 187.3C233.4 186.593 239.496 185.221 245.611 184C261.557 180.816 274.228 194.541 269.636 210.122C265.314 224.784 261 239.447 256.694 254.114C256.53 254.673 256.482 255.266 256.379 255.843C254.312 261.835 252.568 267.922 251.017 274.066C248.53 280.888 246.779 287.933 244.694 294.878C241.881 304.251 239.139 313.646 236.415 323.045C236.02 324.41 235.331 324.908 233.897 324.873C230.095 324.782 226.289 324.888 222.486 324.821C221.045 324.796 220.462 325.216 220.225 326.759C219.114 334 223.871 339.876 231.201 340.055C234.773 340.142 238.054 341.069 240.871 343.29C243.076 345.027 244.314 347.219 243.446 350.153C241.092 350.196 238.737 350.278 236.382 350.274C221.973 350.248 207.564 350.204 193.154 350.166C192.918 349.366 193.353 348.675 193.564 347.97C200.895 323.505 207.444 298.82 214.288 274.219C214.901 272.015 215.226 269.84 213.408 268.064C211.489 266.188 209.275 266.349 206.814 267.091C203.364 268.132 200.059 269.738 196.39 270.003Z" fill="#C886A9"/>
<path d="M91.5497 360.399H223.144L228.383 360.289C234.369 360.289 239.912 360.351 245.436 360.351C257.515 360.351 267.051 356.691 276.792 351.249C279.019 350.005 279.675 347.766 278.689 345.618C277.685 343.43 275.326 342.443 272.94 343.364C271.53 343.908 270.151 344.589 268.861 345.379C260.988 350.205 252.941 350.154 243.447 350.154C241.093 350.197 238.738 350.278 236.383 350.274C221.973 350.249 207.564 350.204 193.155 350.166C192.399 350.21 191.636 350.201 190.889 350.307C188.878 350.592 187.724 350.334 187.798 347.721C187.864 345.395 185.994 343.846 184.124 342.581C181.832 341.03 179.266 340.042 176.538 340.119C167.808 340.366 162.632 333.689 164.728 324.918C158.029 324.877 151.33 324.835 144.631 324.793C142.307 332.512 139.884 340.204 137.727 347.968C137.175 349.954 136.328 350.344 134.447 350.339C112.386 350.273 90.3244 350.298 68.2636 350.29C67.4244 350.29 54.3644 349.548 49.1111 346.971C46.7681 345.821 44.4753 344.563 42.0968 343.494C39.6343 342.388 37.1469 343.281 36.0647 345.489C34.9872 347.686 35.6738 350.051 37.9956 351.306C46.6912 356.006 55.488 360.447 65.7407 360.437H86.044" fill="#C886A9"/>
<path d="M111.52 279.5C125.032 275.277 138.535 271.024 152.062 266.847C156.342 265.525 159.781 268.752 158.745 273.102C158.023 276.132 157.045 279.101 156.182 282.096C148.559 282.932 140.973 284.066 133.278 284.275C125.594 284.483 118.343 283.048 111.52 279.5Z" fill="#D481AA"/>
<path d="M251.018 274.066C252.569 267.923 254.313 261.836 256.38 255.845C260.45 260.56 264.439 265.342 268.845 269.764C270.558 271.482 271.082 273.688 269.891 276.049C268.723 278.364 266.785 279.321 264.291 279.124C259.384 278.734 254.969 276.992 251.018 274.066Z" fill="#1C3D6D"/>
<path d="M196.448 269.99C196.324 270.148 196.199 270.306 196.073 270.463C196.066 270.201 196.087 269.961 196.448 269.99Z" fill="#336848"/>
<path d="M234.647 371.215C234.647 376.898 230.04 381.505 224.357 381.505C218.673 381.505 214.065 376.898 214.065 371.215C214.065 365.531 218.673 360.924 224.357 360.924C230.04 360.924 234.647 365.531 234.647 371.215Z" fill="#C886A9"/>
<path d="M90.5759 371.215C90.5759 376.898 85.9685 381.505 80.2853 381.505C74.6016 381.505 69.9941 376.898 69.9941 371.215C69.9941 365.531 74.6016 360.924 80.2853 360.924C85.9685 360.924 90.5759 365.531 90.5759 371.215Z" fill="#C886A9"/>
</svg>
