<svg width="210" height="210" viewBox="0 0 210 210" fill="none" xmlns="http://www.w3.org/2000/svg">
<path d="M210 210H0V-6.909e-06H210V210Z" fill="#869D4C"/>
<path d="M142.433 71.0032C132.567 61.1137 119.428 55.6744 105.465 55.6744C76.6438 55.6744 53.1915 79.1268 53.1915 107.948C53.1915 117.154 55.5933 126.149 60.1613 134.084L52.7441 161.163L80.4584 153.887C88.0875 158.055 96.6819 160.245 105.441 160.245H105.465C134.262 160.245 158.233 136.792 158.233 107.971C158.233 94.0082 152.299 80.8928 142.433 71.0032V71.0032ZM105.465 151.438C97.6473 151.438 89.9947 149.342 83.3311 145.387L81.7534 144.445L65.318 148.754L69.6976 132.719L68.6616 131.07C64.3055 124.148 62.0215 116.165 62.0215 107.948C62.0215 84.0009 81.518 64.5044 105.488 64.5044C117.097 64.5044 127.999 69.0253 136.193 77.243C144.387 85.4608 149.426 96.3628 149.403 107.971C149.403 131.942 129.412 151.438 105.465 151.438V151.438ZM129.294 118.897C127.999 118.238 121.571 115.082 120.37 114.658C119.169 114.211 118.298 113.999 117.426 115.318C116.555 116.636 114.059 119.556 113.282 120.451C112.529 121.322 111.752 121.44 110.457 120.781C102.78 116.942 97.7415 113.929 92.679 105.24C91.3369 102.932 94.0212 103.097 96.5171 98.1053C96.9409 97.234 96.729 96.4805 96.3994 95.8212C96.0697 95.1619 93.4561 88.7337 92.3729 86.1201C91.3133 83.5771 90.2302 83.9303 89.4296 83.8832C88.6761 83.8361 87.8049 83.8361 86.9337 83.8361C86.0625 83.8361 84.6497 84.1657 83.4488 85.4608C82.2479 86.7794 78.8808 89.9346 78.8808 96.3628C78.8808 102.791 83.5665 109.007 84.2023 109.879C84.8616 110.75 93.409 123.936 106.524 129.61C114.813 133.19 118.062 133.496 122.206 132.883C124.726 132.507 129.93 129.728 131.013 126.667C132.096 123.606 132.096 120.992 131.766 120.451C131.46 119.862 130.589 119.533 129.294 118.897Z" fill="#F1EDE5"/>
</svg>
