<svg width="72" height="71" viewBox="0 0 72 71" fill="none" xmlns="http://www.w3.org/2000/svg">
<path d="M31.2393 42.0901L42.7693 35.45L31.2393 28.8101V42.0901Z" fill="#1B3C6A"/>
<path d="M35.66 0C16.08 0 0.209961 15.88 0.209961 35.45C0.209961 55.03 16.09 70.9 35.66 70.9C55.24 70.9 71.11 55.03 71.11 35.45C71.11 15.87 55.24 0 35.66 0ZM57.81 35.49C57.81 35.49 57.81 42.68 56.9 46.15C56.39 48.05 54.89 49.54 53 50.05C49.53 50.96 35.67 50.96 35.67 50.96C35.67 50.96 21.84 50.96 18.33 50.01C16.43 49.5 14.94 48 14.43 46.11C13.52 42.68 13.52 35.45 13.52 35.45C13.52 35.45 13.52 28.26 14.43 24.79C14.94 22.89 16.47 21.36 18.33 20.85C21.8 19.94 35.67 19.94 35.67 19.94C35.67 19.94 49.54 19.94 53 20.89C54.9 21.4 56.39 22.9 56.9 24.79C57.85 28.26 57.81 35.49 57.81 35.49Z" fill="#1B3C6A"/>
</svg>
